<svg width="42" height="42" viewBox="0 0 42 42" fill="none" xmlns="http://www.w3.org/2000/svg">
<path d="M31.5 17.25H28.5C28.0875 17.25 27.75 16.9125 27.75 16.5V9.75C27.75 8.9475 27.435 8.1975 26.8725 7.62C26.3025 7.0575 25.5525 6.75 24.75 6.75C24.3375 6.75 24 6.4125 24 6C24 5.5875 24.3375 5.25 24.75 5.25C25.95 5.25 27.075 5.715 27.93 6.5625C28.785 7.425 29.25 8.55 29.25 9.75V15.75H30.75V9.75C30.75 6.4425 28.0575 3.75 24.75 3.75C24.3375 3.75 24 3.4125 24 3C24 2.5875 24.3375 2.25 24.75 2.25C28.8825 2.25 32.25 5.6175 32.25 9.75V16.5C32.25 16.9125 31.9125 17.25 31.5 17.25Z" fill="#69A470"/>
<path d="M21.75 3.5625C21.4425 3.5625 21.1875 3.3075 21.1875 3V1.5C21.1875 1.1925 21.4425 0.9375 21.75 0.9375C22.0575 0.9375 22.3125 1.1925 22.3125 1.5V3C22.3125 3.3075 22.0575 3.5625 21.75 3.5625Z" fill="#5C5C5C"/>
<path d="M21.75 36.795C21.4425 36.795 21.1875 36.54 21.1875 36.2325V33.465C21.1875 33.1575 21.4425 32.9025 21.75 32.9025C22.0575 32.9025 22.3125 33.1575 22.3125 33.465V36.2325C22.3125 36.54 22.0575 36.795 21.75 36.795ZM21.75 31.26C21.4425 31.26 21.1875 31.005 21.1875 30.6975V27.93C21.1875 27.6225 21.4425 27.3675 21.75 27.3675C22.0575 27.3675 22.3125 27.6225 22.3125 27.93V30.6975C22.3125 31.005 22.0575 31.26 21.75 31.26ZM21.75 25.725C21.4425 25.725 21.1875 25.47 21.1875 25.1625V22.395C21.1875 22.0875 21.4425 21.8325 21.75 21.8325C22.0575 21.8325 22.3125 22.0875 22.3125 22.395V25.1625C22.3125 25.47 22.0575 25.725 21.75 25.725ZM21.75 20.19C21.4425 20.19 21.1875 19.935 21.1875 19.6275V16.86C21.1875 16.5525 21.4425 16.2975 21.75 16.2975C22.0575 16.2975 22.3125 16.5525 22.3125 16.86V19.6275C22.3125 19.935 22.0575 20.19 21.75 20.19ZM21.75 14.655C21.4425 14.655 21.1875 14.4 21.1875 14.0925V11.325C21.1875 11.0175 21.4425 10.7625 21.75 10.7625C22.0575 10.7625 22.3125 11.0175 22.3125 11.325V14.0925C22.3125 14.4 22.0575 14.655 21.75 14.655ZM21.75 9.11998C21.4425 9.11998 21.1875 8.86498 21.1875 8.55748V5.78998C21.1875 5.48248 21.4425 5.22748 21.75 5.22748C22.0575 5.22748 22.3125 5.48248 22.3125 5.78998V8.55748C22.3125 8.86498 22.0575 9.11998 21.75 9.11998Z" fill="#5C5C5C"/>
<path d="M21.75 41.0625C21.4425 41.0625 21.1875 40.8075 21.1875 40.5V39C21.1875 38.6925 21.4425 38.4375 21.75 38.4375C22.0575 38.4375 22.3125 38.6925 22.3125 39V40.5C22.3125 40.8075 22.0575 41.0625 21.75 41.0625Z" fill="#5C5C5C"/>
<path d="M28.3497 38.25H24.7497C24.3372 38.25 23.9997 37.9125 23.9997 37.5C23.9997 37.0875 24.3372 36.75 24.7497 36.75H28.3497C32.5647 36.75 35.9997 33.3225 35.9997 29.1C35.9997 26.7525 34.9422 24.57 33.1047 23.1075C32.6022 22.71 32.2872 22.1175 32.2272 21.4725C32.1747 20.835 32.3922 20.19 32.8197 19.7175L33.8022 18.63C34.1397 18.2625 33.9972 17.85 33.9447 17.7375C33.8922 17.625 33.6897 17.2425 33.1872 17.2425H24.7422C24.3297 17.2425 23.9922 16.905 23.9922 16.4925C23.9922 16.08 24.3297 15.7425 24.7422 15.7425H33.1872C34.1247 15.7425 34.9347 16.275 35.3172 17.1225C35.6922 17.9775 35.5422 18.9375 34.9197 19.6275L33.9372 20.715C33.7797 20.8875 33.7047 21.105 33.7272 21.3375C33.7497 21.57 33.8547 21.7725 34.0347 21.9225C36.2397 23.67 37.4997 26.28 37.4997 29.0925C37.4997 34.1325 33.3972 38.2425 28.3497 38.2425V38.25Z" fill="#69A470"/>
<path d="M15 17.25H12C11.5875 17.25 11.25 16.9125 11.25 16.5V12.75C11.25 12.465 11.4075 12.21 11.6625 12.0825L13.1625 11.3325C13.4175 11.205 13.7175 11.235 13.95 11.4L15.45 12.525C15.6375 12.6675 15.75 12.8925 15.75 13.125V16.5C15.75 16.9125 15.4125 17.25 15 17.25ZM12.75 15.75H14.25V13.5L13.4175 12.8775L12.75 13.215V15.75Z" fill="#69A470"/>
<path d="M15.1431 9.48C14.9031 9.48 14.6781 9.3675 14.5356 9.1725L13.9581 8.3775L12.4131 8.865C12.1581 8.9475 11.8731 8.88 11.6781 8.7C11.4831 8.5125 11.4006 8.235 11.4606 7.9725C12.2781 4.5975 15.2781 2.25 18.7506 2.25C19.1631 2.25 19.5006 2.5875 19.5006 3C19.5006 3.4125 19.1631 3.75 18.7506 3.75C16.4706 3.75 14.4381 5.025 13.4256 6.975L14.0256 6.7875C14.3331 6.69 14.6706 6.8025 14.8581 7.065L15.0006 7.2675C15.1656 7.02 15.3531 6.7875 15.5631 6.5775C16.4256 5.7225 17.5581 5.2575 18.7506 5.2575C19.1631 5.2575 19.5006 5.595 19.5006 6.0075C19.5006 6.42 19.1631 6.7575 18.7506 6.7575C17.9481 6.7575 17.1981 7.0725 16.6206 7.635C16.2606 8.0025 15.9981 8.4525 15.8631 8.94C15.7881 9.2175 15.5556 9.4275 15.2706 9.48C15.2256 9.4875 15.1806 9.495 15.1356 9.495L15.1431 9.48Z" fill="#69A470"/>
<path d="M18.75 38.25H15.15C10.11 38.25 6 34.1475 6 29.1C6 26.2875 7.26 23.6775 9.465 21.93C9.645 21.7875 9.7575 21.5775 9.7725 21.345C9.795 21.1125 9.72 20.895 9.5625 20.7225L8.58 19.635C7.9575 18.945 7.8 17.985 8.1825 17.13C8.565 16.275 9.375 15.75 10.3125 15.75H18.7575C19.17 15.75 19.5075 16.0875 19.5075 16.5C19.5075 16.9125 19.17 17.25 18.7575 17.25H10.305C9.8025 17.25 9.6 17.625 9.5475 17.745C9.495 17.8575 9.3525 18.27 9.69 18.6375L10.6725 19.725C11.1 20.1975 11.3175 20.8425 11.265 21.48C11.2125 22.1175 10.89 22.7175 10.3875 23.115C8.55 24.5775 7.4925 26.76 7.4925 29.1075C7.4925 33.3225 10.92 36.7575 15.1425 36.7575H18.7425C19.155 36.7575 19.4925 37.095 19.4925 37.5075C19.4925 37.92 19.155 38.2575 18.7425 38.2575L18.75 38.25Z" fill="#69A470"/>
<path d="M8.34187 13.5075C8.19937 13.5075 8.05687 13.455 7.94437 13.3425C7.72687 13.125 7.72687 12.765 7.94437 12.5475L9.06937 11.4225C9.28687 11.205 9.64687 11.205 9.86437 11.4225C10.0819 11.64 10.0819 12 9.86437 12.2175L8.73937 13.3425C8.62687 13.455 8.48437 13.5075 8.34187 13.5075ZM8.94937 10.695H7.35938C7.05187 10.695 6.79688 10.44 6.79688 10.1325C6.79688 9.82503 7.05187 9.57002 7.35938 9.57002H8.94937C9.25687 9.57002 9.51187 9.82503 9.51187 10.1325C9.51187 10.44 9.25687 10.695 8.94937 10.695ZM9.46687 9.00752C9.32437 9.00752 9.18187 8.95502 9.06937 8.84252L7.94437 7.71752C7.72687 7.50002 7.72687 7.14002 7.94437 6.92252C8.16187 6.70502 8.52187 6.70502 8.73937 6.92252L9.86437 8.04752C10.0819 8.26502 10.0819 8.62502 9.86437 8.84252C9.75187 8.95502 9.60937 9.00752 9.46687 9.00752Z" fill="#5C5C5C"/>
<path d="M37.5678 38.235L34.1703 40.5C33.9153 40.665 33.5928 40.665 33.3378 40.5L29.9403 38.235C28.1103 37.0125 27.0078 34.9575 27.0078 32.7525V26.6925C27.0078 26.37 27.2178 26.085 27.5178 25.98L33.5178 23.9775C33.6753 23.925 33.8403 23.925 33.9903 23.9775L39.9903 25.98C40.2978 26.085 40.5003 26.37 40.5003 26.6925V32.7525C40.5003 34.9575 39.3978 37.0125 37.5678 38.235Z" fill="#5C5C5C"/>
<path d="M33.0019 34.5C32.8069 34.5 32.6194 34.425 32.4694 34.2825L30.5944 32.4075C30.3019 32.115 30.3019 31.6425 30.5944 31.35C30.8869 31.0575 31.3594 31.0575 31.6519 31.35L32.9944 32.6925L36.2119 29.475C36.5044 29.1825 36.9769 29.1825 37.2694 29.475C37.5619 29.7675 37.5619 30.24 37.2694 30.5325L33.5194 34.2825C33.3694 34.4325 33.1819 34.5 32.9869 34.5H33.0019Z" fill="white"/>
</svg>
