<?xml version="1.0" encoding="UTF-8"?>
<svg id="Layer_1" data-name="Layer 1" xmlns="http://www.w3.org/2000/svg" viewBox="0 0 56 56">
  <defs>
    <style>
      .cls-1 {
        fill: #69a470;
      }

      .cls-2 {
        fill: #fff;
      }

      .cls-3 {
        fill: #5c5c5c;
      }
    </style>
  </defs>
  <g>
    <path class="cls-1" d="M47,25h-4c-.55,0-1-.45-1-1v-2c0-7.72-6.28-14-14-14s-14,6.28-14,14v2c0,.55-.45,1-1,1h-4c-.55,0-1-.45-1-1v-2C8,10.97,16.97,2,28,2s20,8.97,20,20v2c0,.55-.45,1-1,1Zm-3-2h2v-1c0-9.92-8.07-18-18-18S10,12.08,10,22v1h2v-1c0-8.82,7.18-16,16-16s16,7.18,16,16v1Z"/>
    <path class="cls-1" d="M48.17,41h-6.17c-.55,0-1-.45-1-1V24c0-.55,.45-1,1-1h6.17c3.22,0,5.83,2.62,5.83,5.83v6.34c0,3.22-2.62,5.83-5.83,5.83Zm-5.17-2h5.17c2.11,0,3.83-1.72,3.83-3.83v-6.34c0-2.11-1.72-3.83-3.83-3.83h-5.17v14Z"/>
    <path class="cls-1" d="M46,41c-.55,0-1-.45-1-1V24c0-.55,.45-1,1-1s1,.45,1,1v16c0,.55-.45,1-1,1Z"/>
    <path class="cls-1" d="M14,41H7.83c-3.22,0-5.83-2.62-5.83-5.83v-6.34c0-3.22,2.62-5.83,5.83-5.83h6.17c.55,0,1,.45,1,1v16c0,.55-.45,1-1,1ZM7.83,25c-2.11,0-3.83,1.72-3.83,3.83v6.34c0,2.11,1.72,3.83,3.83,3.83h5.17v-14H7.83Z"/>
    <path class="cls-1" d="M10,41c-.55,0-1-.45-1-1V24c0-.55,.45-1,1-1s1,.45,1,1v16c0,.55-.45,1-1,1Z"/>
    <path class="cls-1" d="M26,53h-6c-.55,0-1-.45-1-1v-4c0-.55,.45-1,1-1h6c1.65,0,3,1.35,3,3s-1.35,3-3,3Zm-5-2h5c.55,0,1-.45,1-1s-.45-1-1-1h-5v2Z"/>
    <path class="cls-1" d="M20,51h-2c-4.96,0-9-4.04-9-9v-2c0-.55,.45-1,1-1s1,.45,1,1v2c0,3.86,3.14,7,7,7h2c.55,0,1,.45,1,1s-.45,1-1,1Z"/>
  </g>
  <g>
    <path class="cls-3" d="M37,40h-9l-5,4v-4h-4c-1.1,0-2-.9-2-2v-13c0-1.1,.9-2,2-2h18c1.1,0,2,.9,2,2v13c0,1.1-.9,2-2,2Z"/>
    <path class="cls-2" d="M29,29h-8c-.55,0-1-.45-1-1s.45-1,1-1h8c.55,0,1,.45,1,1s-.45,1-1,1Z"/>
    <path class="cls-2" d="M34,29h-1c-.55,0-1-.45-1-1s.45-1,1-1h1c.55,0,1,.45,1,1s-.45,1-1,1Z"/>
    <path class="cls-2" d="M26,33h-5c-.55,0-1-.45-1-1s.45-1,1-1h5c.55,0,1,.45,1,1s-.45,1-1,1Z"/>
  </g>
  <path class="cls-3" d="M30.31,20.79c-.19,0-.38-.07-.53-.22-.29-.29-.29-.77,0-1.06l1.5-1.5c.29-.29,.77-.29,1.06,0s.29,.77,0,1.06l-1.5,1.5c-.15,.15-.34,.22-.53,.22Zm-4.5,0c-.19,0-.38-.07-.53-.22l-1.5-1.5c-.29-.29-.29-.77,0-1.06s.77-.29,1.06,0l1.5,1.5c.29,.29,.29,.77,0,1.06-.15,.15-.34,.22-.53,.22Zm2.25-.69c-.41,0-.75-.34-.75-.75v-2.12c0-.41,.34-.75,.75-.75s.75,.34,.75,.75v2.12c0,.41-.34,.75-.75,.75Z"/>
</svg>