<svg width="42" height="42" viewBox="0 0 42 42" fill="none" xmlns="http://www.w3.org/2000/svg">
<path d="M15 23.25C11.6925 23.25 9 20.5575 9 17.25V12C9 9.105 11.355 6.75 14.25 6.75H15.75C18.645 6.75 21 9.105 21 12V17.25C21 20.5575 18.3075 23.25 15 23.25ZM14.25 8.25C12.18 8.25 10.5 9.93 10.5 12V17.25C10.5 19.7325 12.5175 21.75 15 21.75C17.4825 21.75 19.5 19.7325 19.5 17.25V12C19.5 9.93 17.82 8.25 15.75 8.25H14.25Z" fill="#69A470"/>
<path d="M15 28.5C13.3425 28.5 12 27.1575 12 25.5V22.5C12 22.0875 12.3375 21.75 12.75 21.75C13.1625 21.75 13.5 22.0875 13.5 22.5V25.5C13.5 26.325 14.175 27 15 27C15.825 27 16.5 26.325 16.5 25.5V22.5C16.5 22.0875 16.8375 21.75 17.25 21.75C17.6625 21.75 18 22.0875 18 22.5V25.5C18 27.1575 16.6575 28.5 15 28.5Z" fill="#69A470"/>
<path d="M27 39H3C2.5875 39 2.25 38.6625 2.25 38.25V31.1775C2.25 28.365 4.1625 25.965 6.9 25.335L12.5775 24.0225C12.9825 23.9325 13.38 24.18 13.4775 24.585C13.5675 24.99 13.32 25.395 12.915 25.485L7.2375 26.7975C5.1825 27.27 3.75 29.0775 3.75 31.185V37.5075H26.25V31.185C26.25 29.0775 24.8175 27.2775 22.7625 26.7975L17.085 25.485C16.68 25.395 16.4325 24.99 16.5225 24.585C16.6125 24.18 17.0175 23.925 17.4225 24.0225L23.1 25.335C25.8375 25.965 27.75 28.3725 27.75 31.1775V38.25C27.75 38.6625 27.4125 39 27 39Z" fill="#69A470"/>
<path d="M21 18H20.25C19.8375 18 19.5 17.6625 19.5 17.25V14.25C19.5 13.8375 19.8375 13.5 20.25 13.5H21C22.2375 13.5 23.25 14.5125 23.25 15.75C23.25 16.9875 22.2375 18 21 18ZM21 15V16.5C21.4125 16.5 21.75 16.1625 21.75 15.75C21.75 15.3375 21.4125 15 21 15Z" fill="#69A470"/>
<path d="M9.75 18H9C7.7625 18 6.75 16.9875 6.75 15.75C6.75 14.5125 7.7625 13.5 9 13.5H9.75C10.1625 13.5 10.5 13.8375 10.5 14.25V17.25C10.5 17.6625 10.1625 18 9.75 18ZM9 15C8.5875 15 8.25 15.3375 8.25 15.75C8.25 16.1625 8.5875 16.5 9 16.5V15Z" fill="#69A470"/>
<path d="M21 39C20.5875 39 20.25 38.6625 20.25 38.25V31.5C20.25 31.0875 20.5875 30.75 21 30.75C21.4125 30.75 21.75 31.0875 21.75 31.5V38.25C21.75 38.6625 21.4125 39 21 39Z" fill="#69A470"/>
<path d="M9 39C8.5875 39 8.25 38.6625 8.25 38.25V31.5C8.25 31.0875 8.5875 30.75 9 30.75C9.4125 30.75 9.75 31.0875 9.75 31.5V38.25C9.75 38.6625 9.4125 39 9 39Z" fill="#69A470"/>
<path d="M20.2487 17.25C19.9337 17.25 19.6412 17.055 19.5362 16.74L18.8387 14.655L17.0387 12.855L15.2312 13.455C15.0737 13.5075 14.9087 13.5075 14.7587 13.455L12.9512 12.855L11.1512 14.655L10.4537 16.74C10.3262 17.13 9.89874 17.3475 9.50874 17.2125C9.11874 17.085 8.90124 16.6575 9.03624 16.2675L9.78624 14.0175C9.82374 13.905 9.88374 13.8075 9.96624 13.725L12.2162 11.475C12.4187 11.2725 12.7187 11.205 12.9812 11.295L14.9912 11.9625L17.0012 11.295C17.2712 11.205 17.5712 11.2725 17.7662 11.475L20.0162 13.725C20.0987 13.8075 20.1587 13.905 20.1962 14.0175L20.9462 16.2675C21.0737 16.6575 20.8637 17.085 20.4737 17.2125C20.3912 17.2425 20.3162 17.25 20.2337 17.25H20.2487Z" fill="#69A470"/>
<path d="M15.0008 20.685C14.4233 20.685 13.8458 20.4675 13.4108 20.025C13.1183 19.7325 13.1183 19.26 13.4108 18.9675C13.7033 18.675 14.1758 18.675 14.4683 18.9675C14.7608 19.26 15.2333 19.26 15.5258 18.9675C15.8183 18.675 16.2908 18.675 16.5833 18.9675C16.8758 19.26 16.8758 19.7325 16.5833 20.025C16.1483 20.46 15.5708 20.685 14.9933 20.685H15.0008Z" fill="#69A470"/>
<path d="M39 13.5H27.75L24 17.25V13.5H19.5C18.675 13.5 18 12.825 18 12V3.75C18 2.925 18.675 2.25 19.5 2.25H39C39.825 2.25 40.5 2.925 40.5 3.75V12C40.5 12.825 39.825 13.5 39 13.5Z" fill="#5C5C5C"/>
<path d="M22.6644 5.055L23.4144 6.57C23.4444 6.6225 23.4969 6.65999 23.5569 6.67499L25.2294 6.915C25.3869 6.9375 25.4469 7.12499 25.3344 7.23749L24.1269 8.415C24.0819 8.46 24.0594 8.51999 24.0744 8.57999L24.3594 10.245C24.3894 10.395 24.2244 10.515 24.0894 10.44L22.5969 9.6525C22.5444 9.6225 22.4769 9.6225 22.4244 9.6525L20.9319 10.44C20.7969 10.515 20.6319 10.395 20.6619 10.245L20.9469 8.57999C20.9544 8.51999 20.9394 8.46 20.8944 8.415L19.6869 7.23749C19.5744 7.13249 19.6344 6.9375 19.7919 6.915L21.4644 6.67499C21.5244 6.66749 21.5769 6.63 21.6069 6.57L22.3569 5.055C22.4244 4.9125 22.6269 4.9125 22.6944 5.055H22.6644Z" fill="white"/>
<path d="M29.4144 5.055L30.1644 6.57C30.1944 6.6225 30.2469 6.65999 30.3069 6.67499L31.9794 6.915C32.1369 6.9375 32.1969 7.12499 32.0844 7.23749L30.8769 8.415C30.8319 8.46 30.8094 8.51999 30.8244 8.57999L31.1094 10.245C31.1394 10.395 30.9744 10.515 30.8394 10.44L29.3469 9.6525C29.2944 9.6225 29.2269 9.6225 29.1744 9.6525L27.6819 10.44C27.5469 10.515 27.3819 10.395 27.4119 10.245L27.6969 8.57999C27.7044 8.51999 27.6894 8.46 27.6444 8.415L26.4369 7.23749C26.3244 7.13249 26.3844 6.9375 26.5419 6.915L28.2144 6.67499C28.2744 6.66749 28.3269 6.63 28.3569 6.57L29.1069 5.055C29.1744 4.9125 29.3769 4.9125 29.4444 5.055H29.4144Z" fill="white"/>
<path d="M36.1644 5.055L36.9144 6.57C36.9444 6.6225 36.9969 6.65999 37.0569 6.67499L38.7294 6.915C38.8869 6.9375 38.9469 7.12499 38.8344 7.23749L37.6269 8.415C37.5819 8.46 37.5594 8.51999 37.5744 8.57999L37.8594 10.245C37.8894 10.395 37.7244 10.515 37.5894 10.44L36.0969 9.6525C36.0444 9.6225 35.9769 9.6225 35.9244 9.6525L34.4319 10.44C34.2969 10.515 34.1319 10.395 34.1619 10.245L34.4469 8.57999C34.4544 8.51999 34.4394 8.46 34.3944 8.415L33.1869 7.23749C33.0744 7.13249 33.1344 6.9375 33.2919 6.915L34.9644 6.67499C35.0244 6.66749 35.0769 6.63 35.1069 6.57L35.8569 5.055C35.9244 4.9125 36.1269 4.9125 36.1944 5.055H36.1644Z" fill="white"/>
<path d="M27.5703 30.93L27.9378 30.5625C28.7853 29.715 29.2578 28.575 29.2578 27.3825V26.25C29.2578 25.8375 29.5953 25.5 30.0078 25.5C31.2528 25.5 32.2578 26.505 32.2578 27.75V31.5H36.4878C37.4178 31.5 38.1228 32.3325 37.9653 33.2475L36.9678 39.2475C36.8478 39.9675 36.2178 40.5 35.4903 40.5H28.7628C28.5978 40.5 28.4478 40.4475 28.3128 40.35L26.6928 39.15C26.5653 39.0525 26.4078 39 26.2428 39H23.2578C22.8453 39 22.5078 38.6625 22.5078 38.25V33C22.5078 32.5875 22.8453 32.25 23.2578 32.25H24.3903C25.5828 32.25 26.7303 31.7775 27.5703 30.93Z" fill="#5C5C5C"/>
<path d="M35.0844 25.44H33.4944C33.1869 25.44 32.9319 25.185 32.9319 24.8775C32.9319 24.57 33.1869 24.315 33.4944 24.315H35.0844C35.3919 24.315 35.6469 24.57 35.6469 24.8775C35.6469 25.185 35.3919 25.44 35.0844 25.44ZM32.6694 23.88C32.5269 23.88 32.3844 23.8275 32.2719 23.715C32.0544 23.4975 32.0544 23.1375 32.2719 22.92L33.3969 21.795C33.6144 21.5775 33.9744 21.5775 34.1919 21.795C34.4094 22.0125 34.4094 22.3725 34.1919 22.59L33.0669 23.715C32.9544 23.8275 32.8119 23.88 32.6694 23.88ZM31.1094 23.055C30.8019 23.055 30.5469 22.8 30.5469 22.4925V20.9025C30.5469 20.595 30.8019 20.34 31.1094 20.34C31.4169 20.34 31.6719 20.595 31.6719 20.9025V22.4925C31.6719 22.8 31.4169 23.055 31.1094 23.055Z" fill="#5C5C5C"/>
<path d="M36 34.3125H33C32.6925 34.3125 32.4375 34.0575 32.4375 33.75C32.4375 33.4425 32.6925 33.1875 33 33.1875H36C36.3075 33.1875 36.5625 33.4425 36.5625 33.75C36.5625 34.0575 36.3075 34.3125 36 34.3125Z" fill="white"/>
<path d="M35.25 36.5625H32.25C31.9425 36.5625 31.6875 36.3075 31.6875 36C31.6875 35.6925 31.9425 35.4375 32.25 35.4375H35.25C35.5575 35.4375 35.8125 35.6925 35.8125 36C35.8125 36.3075 35.5575 36.5625 35.25 36.5625Z" fill="white"/>
<path d="M34.5 38.8125H31.5C31.1925 38.8125 30.9375 38.5575 30.9375 38.25C30.9375 37.9425 31.1925 37.6875 31.5 37.6875H34.5C34.8075 37.6875 35.0625 37.9425 35.0625 38.25C35.0625 38.5575 34.8075 38.8125 34.5 38.8125Z" fill="white"/>
</svg>
