<svg width="42" height="42" viewBox="0 0 42 42" fill="none" xmlns="http://www.w3.org/2000/svg">
<path d="M13.5666 36.7425H13.5441L9.19412 36.63C8.81162 36.6225 8.49662 36.33 8.46662 35.9475L8.04662 31.2825C8.02412 31.0575 8.10662 30.84 8.26412 30.6825L21.4641 17.49C21.9966 16.9575 22.0791 16.1175 21.6591 15.495C20.8491 14.28 21.0066 12.645 22.0416 11.6025L26.4666 7.17753C27.0516 6.59253 27.8241 6.27753 28.6491 6.27753C29.4741 6.27753 30.2466 6.60003 30.8316 7.17753L37.6116 13.9575C38.8116 15.1575 38.8116 17.115 37.6116 18.315L33.1866 22.74C32.1516 23.775 30.5166 23.94 29.2941 23.1225C28.6716 22.7025 27.8316 22.7925 27.2991 23.3175L23.9016 26.715L23.2716 29.31C23.2041 29.5725 23.0016 29.7825 22.7391 29.8575L20.0241 30.5925L19.4916 31.125L18.7116 33.8925C18.6441 34.14 18.4491 34.335 18.1941 34.41L15.4041 35.2125L14.1066 36.51C13.9641 36.6525 13.7766 36.7275 13.5741 36.7275L13.5666 36.7425ZM9.89912 35.1525L13.2591 35.235L14.4666 34.0275C14.5566 33.9375 14.6691 33.87 14.7891 33.84L17.3691 33.0975L18.0891 30.5475C18.1266 30.42 18.1866 30.315 18.2841 30.2175L19.1016 29.4C19.1916 29.31 19.3116 29.2425 19.4391 29.205L21.9216 28.5375L22.4916 26.1675C22.5216 26.0325 22.5891 25.9125 22.6866 25.815L26.2341 22.2675C27.2691 21.2325 28.9041 21.0675 30.1266 21.885C30.7491 22.305 31.5891 22.215 32.1216 21.69L36.5466 17.265C37.1616 16.65 37.1616 15.645 36.5466 15.03L29.7666 8.25003C29.1666 7.65003 28.1241 7.65003 27.5316 8.25003L23.1066 12.675C22.5741 13.2075 22.4916 14.0475 22.9116 14.67C23.7216 15.885 23.5641 17.5275 22.5291 18.5625L9.57662 31.5L9.90662 35.145L9.89912 35.1525Z" fill="#69A470"/>
<path d="M11.6777 33.33C11.4827 33.33 11.2952 33.255 11.1452 33.1125C10.8527 32.82 10.8527 32.3475 11.1452 32.055L19.6277 23.5725C20.7977 22.4025 22.7027 22.4025 23.8727 23.5725L24.9302 24.6375C25.2227 24.93 25.2227 25.4025 24.9302 25.695C24.6377 25.9875 24.1652 25.9875 23.8727 25.695L22.8152 24.63C22.2302 24.045 21.2777 24.045 20.6927 24.63L12.2102 33.1125C12.0602 33.2625 11.8727 33.33 11.6777 33.33Z" fill="#69A470"/>
<path d="M32.8955 18.48C32.7005 18.48 32.513 18.405 32.363 18.2625L26.528 12.4275C26.2355 12.135 26.2355 11.6625 26.528 11.37L28.118 9.78003C28.403 9.49503 28.898 9.49503 29.1755 9.78003L35.0105 15.615C35.303 15.9075 35.303 16.38 35.0105 16.6725L33.4205 18.2625C33.2705 18.4125 33.083 18.48 32.888 18.48H32.8955ZM28.1255 11.895L32.8955 16.665L33.428 16.1325L28.658 11.3625L28.1255 11.895Z" fill="#69A470"/>
<path d="M27.5905 20.6025C27.3955 20.6025 27.208 20.5275 27.058 20.385L24.403 17.73C24.1105 17.4375 24.1105 16.965 24.403 16.6725C24.6955 16.38 25.168 16.38 25.4605 16.6725L28.1155 19.3275C28.408 19.62 28.408 20.0925 28.1155 20.385C27.9655 20.535 27.778 20.6025 27.583 20.6025H27.5905Z" fill="#69A470"/>
<path d="M16.1115 24.4125C15.9165 24.4125 15.729 24.3375 15.579 24.195L11.6565 20.2725C9.15145 21.0975 6.38395 20.46 4.50145 18.57C2.49145 16.56 1.89145 13.5675 2.97145 10.935C3.06895 10.7025 3.27145 10.53 3.51895 10.485C3.76645 10.44 4.02145 10.515 4.19395 10.6875L7.68895 14.1825L9.80395 13.95L10.0365 11.835L6.54145 8.34001C6.36145 8.16001 6.28645 7.90501 6.33895 7.66501C6.39145 7.41751 6.55645 7.21501 6.78895 7.11751C9.42145 6.03751 12.414 6.63751 14.424 8.64751C16.314 10.5375 16.959 13.2975 16.1265 15.8025L20.049 19.725C20.3415 20.0175 20.3415 20.49 20.049 20.7825C19.7565 21.075 19.284 21.075 18.9915 20.7825L14.7315 16.5225C14.514 16.305 14.454 15.99 14.5665 15.705C15.414 13.635 14.949 11.28 13.3665 9.70501C12.069 8.40751 10.254 7.86001 8.49895 8.17501L11.3565 11.0325C11.514 11.19 11.5965 11.4225 11.574 11.6475L11.2365 14.715C11.199 15.06 10.9215 15.3375 10.5765 15.375L7.50895 15.72C7.28395 15.7425 7.05895 15.6675 6.89395 15.5025L4.03645 12.645C3.72145 14.4 4.27645 16.215 5.56645 17.5125C7.14895 19.095 9.50395 19.5675 11.5665 18.7125C11.844 18.6 12.1665 18.66 12.384 18.8775L16.644 23.1375C16.9365 23.43 16.9365 23.9025 16.644 24.195C16.494 24.345 16.3065 24.4125 16.1115 24.4125Z" fill="#69A470"/>
<path d="M31.5 40.5C36.0563 40.5 39.75 36.8063 39.75 32.25C39.75 27.6937 36.0563 24 31.5 24C26.9437 24 23.25 27.6937 23.25 32.25C23.25 36.8063 26.9437 40.5 31.5 40.5Z" fill="#5C5C5C"/>
<path d="M34.5 21H28.5C28.0875 21 27.75 21.3375 27.75 21.75V23.25C27.75 23.6625 28.0875 24 28.5 24C28.9125 24 29.25 24.3375 29.25 24.75V27C29.25 27.4125 29.5875 27.75 30 27.75H33C33.4125 27.75 33.75 27.4125 33.75 27V24.75C33.75 24.3375 34.0875 24 34.5 24C34.9125 24 35.25 23.6625 35.25 23.25V21.75C35.25 21.3375 34.9125 21 34.5 21Z" fill="#5C5C5C"/>
<path d="M38.5616 25.4977C38.8545 25.2048 38.8545 24.73 38.5616 24.4371C38.2687 24.1442 37.7938 24.1442 37.5009 24.4371L36.4403 25.4977C36.1474 25.7906 36.1474 26.2655 36.4403 26.5584C36.7332 26.8513 37.208 26.8513 37.5009 26.5584L38.5616 25.4977Z" fill="#5C5C5C"/>
<path d="M31.3509 35.7H26.6034V34.755L28.8459 32.3625C29.1534 32.025 29.3784 31.7325 29.5284 31.485C29.6784 31.2375 29.7459 30.9975 29.7459 30.7725C29.7459 30.465 29.6709 30.225 29.5134 30.045C29.3559 29.8725 29.1384 29.7825 28.8459 29.7825C28.5309 29.7825 28.2909 29.8875 28.1109 30.105C27.9309 30.3225 27.8409 30.6 27.8409 30.9525H26.4609C26.4609 30.5325 26.5584 30.1425 26.7609 29.7975C26.9634 29.445 27.2484 29.175 27.6159 28.9725C27.9834 28.7775 28.4034 28.6725 28.8684 28.6725C29.5809 28.6725 30.1359 28.845 30.5334 29.19C30.9309 29.535 31.1259 30.015 31.1259 30.645C31.1259 30.99 31.0359 31.335 30.8559 31.695C30.6759 32.0475 30.3759 32.4675 29.9409 32.94L28.3659 34.605H31.3434V35.715L31.3509 35.7Z" fill="white"/>
<path d="M35.6617 33.09H36.4492V34.2H35.6617V35.7H34.2892V34.2H31.4467L31.3867 33.33L34.2742 28.7625H35.6617V33.0825V33.09ZM32.7517 33.09H34.2817V30.645L34.1917 30.8025L32.7517 33.09Z" fill="white"/>
</svg>
