<svg width="32" height="33" viewBox="0 0 32 33" fill="none" xmlns="http://www.w3.org/2000/svg">
<path d="M14.0502 18.74H12.8387C12.6044 18.74 12.4102 18.5457 12.4102 18.3114C12.4102 18.0771 12.6044 17.8828 12.8387 17.8828H14.0502C14.2844 17.8828 14.4787 18.0771 14.4787 18.3114C14.4787 18.5457 14.2844 18.74 14.0502 18.74ZM14.6787 17.5514C14.5702 17.5514 14.4616 17.5114 14.3759 17.4257L13.5187 16.5685C13.353 16.4028 13.353 16.1285 13.5187 15.9628C13.6844 15.7971 13.9587 15.7971 14.1244 15.9628L14.9816 16.82C15.1473 16.9857 15.1473 17.26 14.9816 17.4257C14.8959 17.5114 14.7873 17.5514 14.6787 17.5514ZM15.8673 16.9228C15.633 16.9228 15.4387 16.7285 15.4387 16.4942V15.2828C15.4387 15.0485 15.633 14.8542 15.8673 14.8542C16.1016 14.8542 16.2959 15.0485 16.2959 15.2828V16.4942C16.2959 16.7285 16.1016 16.9228 15.8673 16.9228Z" fill="#5C5C5C"/>
<path d="M16.0005 31.3571C10.6805 31.3571 5.91474 27.9914 4.14903 22.9742C4.04617 22.6771 4.20045 22.3514 4.4976 22.2428C4.79474 22.1342 5.12045 22.2942 5.22903 22.5914C6.83474 27.1514 11.1662 30.2085 16.0062 30.2085C22.309 30.2085 27.4347 25.0828 27.4347 18.7799C27.4347 12.4771 22.3033 7.35709 16.0005 7.35709C11.8062 7.35709 7.94903 9.64852 5.94331 13.3457C5.79474 13.6257 5.44617 13.7228 5.16617 13.5742C4.88617 13.4257 4.78331 13.0771 4.9376 12.7971C7.14331 8.73423 11.3833 6.21423 16.0005 6.21423C22.9319 6.21423 28.5719 11.8542 28.5719 18.7857C28.5719 25.7171 22.9319 31.3571 16.0005 31.3571Z" fill="#69A470"/>
<path d="M16.0017 28.5C12.9788 28.5 10.1788 27.1285 8.32737 24.74C8.13308 24.4885 8.1788 24.1342 8.43023 23.94C8.68165 23.7457 9.03594 23.7914 9.23023 24.0428C10.8645 26.1514 13.3331 27.3571 16.0017 27.3571C20.7274 27.3571 24.5731 23.5114 24.5731 18.7857C24.5731 14.06 20.7274 10.2142 16.0017 10.2142C14.4188 10.2142 12.8759 10.6485 11.5331 11.4657C11.2645 11.6314 10.9102 11.5457 10.7445 11.2771C10.5788 11.0085 10.6645 10.6542 10.9331 10.4885C12.4531 9.5571 14.2017 9.06567 15.9959 9.06567C21.3502 9.06567 25.7102 13.4257 25.7102 18.78C25.7102 24.1342 21.3502 28.4942 15.9959 28.4942L16.0017 28.5Z" fill="#69A470"/>
<path d="M20.5737 5.07139H11.4308C11.1165 5.07139 10.8594 4.81425 10.8594 4.49997V2.21425C10.8594 1.89997 11.1165 1.64282 11.4308 1.64282H20.5737C20.8879 1.64282 21.1451 1.89997 21.1451 2.21425V4.49997C21.1451 4.81425 20.8879 5.07139 20.5737 5.07139ZM12.0022 3.92854H20.0022V2.78568H12.0022V3.92854Z" fill="#69A470"/>
<path d="M18.856 7.35716C18.5417 7.35716 18.2846 7.10002 18.2846 6.78573V5.07145H13.7132V6.78573C13.7132 7.10002 13.456 7.35716 13.1417 7.35716C12.8275 7.35716 12.5703 7.10002 12.5703 6.78573V4.50002C12.5703 4.18573 12.8275 3.92859 13.1417 3.92859H18.856C19.1703 3.92859 19.4275 4.18573 19.4275 4.50002V6.78573C19.4275 7.10002 19.1703 7.35716 18.856 7.35716Z" fill="#69A470"/>
<path d="M24.739 11.0942C24.5904 11.0942 24.4475 11.0371 24.3333 10.9285C24.1104 10.7057 24.1104 10.3457 24.3333 10.1228L25.9504 8.50566C26.059 8.39708 26.1161 8.25423 26.1161 8.09994C26.1161 7.94566 26.059 7.8028 25.9504 7.69423C25.7275 7.47137 25.3675 7.47137 25.1447 7.69423L23.5275 9.31137C23.3047 9.53423 22.9447 9.53423 22.7218 9.31137C22.499 9.08851 22.499 8.72851 22.7218 8.50566L24.339 6.88851C25.0075 6.21994 26.0933 6.21994 26.7618 6.88851C27.0875 7.21423 27.2647 7.6428 27.2647 8.09994C27.2647 8.55708 27.0875 8.98566 26.7618 9.31137L25.1447 10.9285C25.0304 11.0428 24.8875 11.0942 24.739 11.0942Z" fill="#69A470"/>
<path d="M25.2761 30.8314L22.0475 27.6029C21.8875 27.4429 21.6532 27.3972 21.4361 27.4772C19.3847 28.2029 17.0532 27.78 15.4532 26.1857C14.0075 24.74 13.5275 22.6886 13.9904 20.7914C14.1275 20.2372 14.5504 20.1114 14.9504 20.5114C15.7447 21.3057 17.0361 22.5972 17.5275 23.0886C17.6532 23.2143 17.8304 23.2714 18.0018 23.2486L20.1504 22.9743C20.4075 22.94 20.6132 22.74 20.6418 22.4829L20.9161 20.3343C20.939 20.1572 20.8761 19.98 20.7561 19.8543L18.179 17.2772C17.859 16.9572 18.019 16.42 18.4532 16.3114C20.3504 15.8486 22.4018 16.3286 23.8475 17.7743C25.4418 19.3686 25.8647 21.7057 25.139 23.7572C25.0647 23.9686 25.1047 24.2086 25.2647 24.3686L28.4932 27.5971C28.7161 27.82 28.7161 28.18 28.4932 28.4029L26.0704 30.8257C25.8475 31.0486 25.4875 31.0486 25.2647 30.8257L25.2761 30.8314Z" fill="#5C5C5C"/>
<path d="M26.2838 29.0714C26.1352 29.0714 25.9924 29.0143 25.8781 28.9057L23.8781 26.9057C23.6552 26.6829 23.6552 26.3229 23.8781 26.1C24.1009 25.8771 24.4609 25.8771 24.6838 26.1L26.6838 28.1C26.9067 28.3229 26.9067 28.6829 26.6838 28.9057C26.5695 29.02 26.4267 29.0714 26.2781 29.0714H26.2838Z" fill="white"/>
<path d="M7.4269 13.6429H3.4269C3.11261 13.6429 2.85547 13.3857 2.85547 13.0714C2.85547 12.7571 3.11261 12.5 3.4269 12.5H7.4269C7.74118 12.5 7.99833 12.7571 7.99833 13.0714C7.99833 13.3857 7.74118 13.6429 7.4269 13.6429Z" fill="#69A470"/>
<path d="M9.71317 16.5H5.14174C4.82746 16.5 4.57031 16.2429 4.57031 15.9286C4.57031 15.6143 4.82746 15.3572 5.14174 15.3572H9.71317C10.0275 15.3572 10.2846 15.6143 10.2846 15.9286C10.2846 16.2429 10.0275 16.5 9.71317 16.5Z" fill="#69A470"/>
<path d="M9.71317 6.78568H5.14174C4.82746 6.78568 4.57031 6.52854 4.57031 6.21425C4.57031 5.89997 4.82746 5.64282 5.14174 5.64282H9.71317C10.0275 5.64282 10.2846 5.89997 10.2846 6.21425C10.2846 6.52854 10.0275 6.78568 9.71317 6.78568Z" fill="#69A470"/>
<path d="M6.85658 23.3571H2.85658C2.5423 23.3571 2.28516 23.0999 2.28516 22.7857C2.28516 22.4714 2.5423 22.2142 2.85658 22.2142H6.85658C7.17087 22.2142 7.42801 22.4714 7.42801 22.7857C7.42801 23.0999 7.17087 23.3571 6.85658 23.3571Z" fill="#69A470"/>
<path d="M4.00167 11.3571H1.71596C1.40167 11.3571 1.14453 11.0999 1.14453 10.7857C1.14453 10.4714 1.40167 10.2142 1.71596 10.2142H4.00167C4.31596 10.2142 4.5731 10.4714 4.5731 10.7857C4.5731 11.0999 4.31596 11.3571 4.00167 11.3571Z" fill="#69A470"/>
<path d="M8.00167 20.5H5.71596C5.40167 20.5 5.14453 20.2429 5.14453 19.9286C5.14453 19.6143 5.40167 19.3572 5.71596 19.3572H8.00167C8.31596 19.3572 8.5731 19.6143 8.5731 19.9286C8.5731 20.2429 8.31596 20.5 8.00167 20.5Z" fill="#69A470"/>
</svg>
