<svg width="42" height="43" viewBox="0 0 42 43" fill="none" xmlns="http://www.w3.org/2000/svg">
<path d="M30.75 39.5H12.75C12.5475 39.5 12.36 39.4175 12.2175 39.2825L6.2175 33.2825C6.075 33.14 6 32.9525 6 32.75V4.25C6 3.8375 6.3375 3.5 6.75 3.5H30.75C31.1625 3.5 31.5 3.8375 31.5 4.25V38.75C31.5 39.1625 31.1625 39.5 30.75 39.5ZM13.0575 38H30V5H7.5V32.4425L13.0575 38Z" fill="#69A470"/>
<path d="M12.7492 39.5C12.5542 39.5 12.3592 39.425 12.2167 39.2825L6.21665 33.2825C5.99915 33.065 5.93915 32.7425 6.05165 32.465C6.16415 32.1875 6.44165 32 6.74165 32H12.7417C13.1542 32 13.4917 32.3375 13.4917 32.75V38.75C13.4917 39.05 13.3117 39.3275 13.0267 39.44C12.9367 39.4775 12.8392 39.5 12.7417 39.5H12.7492ZM8.55665 33.5L11.9992 36.9425V33.5H8.55665Z" fill="#69A470"/>
<path d="M12.7519 14C12.5569 14 12.3694 13.925 12.2194 13.7825L10.3444 11.9075C10.0519 11.615 10.0519 11.1425 10.3444 10.85C10.6369 10.5575 11.1094 10.5575 11.4019 10.85L12.7444 12.1925L15.9619 8.97499C16.2544 8.68249 16.7269 8.68249 17.0194 8.97499C17.3119 9.26749 17.3119 9.73999 17.0194 10.0325L13.2694 13.7825C13.1194 13.9325 12.9319 14 12.7369 14H12.7519Z" fill="#5C5C5C"/>
<path d="M26.25 11H19.5C19.0875 11 18.75 10.6625 18.75 10.25C18.75 9.8375 19.0875 9.5 19.5 9.5H26.25C26.6625 9.5 27 9.8375 27 10.25C27 10.6625 26.6625 11 26.25 11Z" fill="#69A470"/>
<path d="M24 14H19.5C19.0875 14 18.75 13.6625 18.75 13.25C18.75 12.8375 19.0875 12.5 19.5 12.5H24C24.4125 12.5 24.75 12.8375 24.75 13.25C24.75 13.6625 24.4125 14 24 14Z" fill="#69A470"/>
<path d="M12.7519 21.5C12.5569 21.5 12.3694 21.425 12.2194 21.2825L10.3444 19.4075C10.0519 19.115 10.0519 18.6425 10.3444 18.35C10.6369 18.0575 11.1094 18.0575 11.4019 18.35L12.7444 19.6925L15.9619 16.475C16.2544 16.1825 16.7269 16.1825 17.0194 16.475C17.3119 16.7675 17.3119 17.24 17.0194 17.5325L13.2694 21.2825C13.1194 21.4325 12.9319 21.5 12.7369 21.5H12.7519Z" fill="#5C5C5C"/>
<path d="M26.25 18.5H19.5C19.0875 18.5 18.75 18.1625 18.75 17.75C18.75 17.3375 19.0875 17 19.5 17H26.25C26.6625 17 27 17.3375 27 17.75C27 18.1625 26.6625 18.5 26.25 18.5Z" fill="#69A470"/>
<path d="M24 21.5H19.5C19.0875 21.5 18.75 21.1625 18.75 20.75C18.75 20.3375 19.0875 20 19.5 20H24C24.4125 20 24.75 20.3375 24.75 20.75C24.75 21.1625 24.4125 21.5 24 21.5Z" fill="#69A470"/>
<path d="M12.7519 29C12.5569 29 12.3694 28.925 12.2194 28.7825L10.3444 26.9075C10.0519 26.615 10.0519 26.1425 10.3444 25.85C10.6369 25.5575 11.1094 25.5575 11.4019 25.85L12.7444 27.1925L15.9619 23.975C16.2544 23.6825 16.7269 23.6825 17.0194 23.975C17.3119 24.2675 17.3119 24.74 17.0194 25.0325L13.2694 28.7825C13.1194 28.9325 12.9319 29 12.7369 29H12.7519Z" fill="#5C5C5C"/>
<path d="M26.25 26H19.5C19.0875 26 18.75 25.6625 18.75 25.25C18.75 24.8375 19.0875 24.5 19.5 24.5H26.25C26.6625 24.5 27 24.8375 27 25.25C27 25.6625 26.6625 26 26.25 26Z" fill="#69A470"/>
<path d="M24 29H19.5C19.0875 29 18.75 28.6625 18.75 28.25C18.75 27.8375 19.0875 27.5 19.5 27.5H24C24.4125 27.5 24.75 27.8375 24.75 28.25C24.75 28.6625 24.4125 29 24 29Z" fill="#69A470"/>
<path d="M33.75 23.75C33.3375 23.75 33 23.4125 33 23V6.5H30.75C30.3375 6.5 30 6.1625 30 5.75C30 5.3375 30.3375 5 30.75 5H33.75C34.1625 5 34.5 5.3375 34.5 5.75V23C34.5 23.4125 34.1625 23.75 33.75 23.75Z" fill="#69A470"/>
<path d="M22.9499 40.1375L18.6824 41.5625C18.0974 41.7575 17.5349 41.2025 17.7374 40.6175L19.1624 36.35C19.3124 35.9075 19.5599 35.51 19.8899 35.18L36.3599 18.71C37.5299 17.54 39.4274 17.54 40.6049 18.71C41.7749 19.88 41.7749 21.7775 40.6049 22.955L24.1349 39.425C23.8049 39.755 23.4074 40.0025 22.9649 40.1525L22.9499 40.1375Z" fill="#5C5C5C"/>
<path d="M22.5605 37.475C22.3655 37.475 22.178 37.4 22.028 37.2575C21.7355 36.965 21.7355 36.4925 22.028 36.2L35.813 22.415C36.1055 22.1225 36.578 22.1225 36.8705 22.415C37.163 22.7075 37.163 23.18 36.8705 23.4725L23.0855 37.2575C22.9355 37.4075 22.748 37.475 22.553 37.475H22.5605Z" fill="white"/>
<path d="M37.4095 24.7475C37.2145 24.7475 37.027 24.6725 36.877 24.53L34.7545 22.4075C34.462 22.115 34.462 21.6425 34.7545 21.35C35.047 21.0575 35.5195 21.0575 35.812 21.35L37.9345 23.4725C38.227 23.765 38.227 24.2375 37.9345 24.53C37.7845 24.68 37.597 24.7475 37.402 24.7475H37.4095Z" fill="white"/>
<path d="M34.1016 34.94C33.7941 34.94 33.5391 34.685 33.5391 34.3775V32.7875C33.5391 32.48 33.7941 32.225 34.1016 32.225C34.4091 32.225 34.6641 32.48 34.6641 32.7875V34.3775C34.6641 34.685 34.4091 34.94 34.1016 34.94ZM36.7866 33.65C36.6441 33.65 36.5016 33.5975 36.3891 33.485L35.2641 32.36C35.0466 32.1425 35.0466 31.7825 35.2641 31.565C35.4816 31.3475 35.8416 31.3475 36.0591 31.565L37.1841 32.69C37.4016 32.9075 37.4016 33.2675 37.1841 33.485C37.0716 33.5975 36.9291 33.65 36.7866 33.65ZM38.0766 30.965H36.4866C36.1791 30.965 35.9241 30.71 35.9241 30.4025C35.9241 30.095 36.1791 29.84 36.4866 29.84H38.0766C38.3841 29.84 38.6391 30.095 38.6391 30.4025C38.6391 30.71 38.3841 30.965 38.0766 30.965Z" fill="#5C5C5C"/>
</svg>
