<svg width="33" height="32" viewBox="0 0 33 32" fill="none" xmlns="http://www.w3.org/2000/svg">
<g clip-path="url(#clip0_2001_3686)">
<path d="M19.6986 0C15.7541 0 12.0474 1.81973 9.62448 4.9056L8.66342 3.2432C8.22982 2.49653 7.41382 2.06027 6.57915 2.14293C5.66715 2.23413 4.26662 2.65547 2.77542 4.1472C-0.943517 7.8656 -0.741916 15.5717 8.09008 24.4053C13.5237 29.8368 18.5295 32.0037 22.4442 32.0037C24.8959 32.0037 26.9199 31.1531 28.3514 29.7216C29.8431 28.2299 30.265 26.8288 30.3557 25.9163V25.9141C30.4346 25.0832 30.0021 24.2683 29.2549 23.8373L27.593 22.8741C30.6789 20.4507 32.4986 16.7445 32.4986 12.8C32.4986 5.7424 26.7562 0 19.6986 0ZM20.7018 1.11253L19.6986 2.9152L18.6965 1.11467C19.0282 1.0864 19.3621 1.06667 19.6986 1.06667C20.0367 1.06667 20.3706 1.08427 20.7018 1.11253ZM6.68155 3.2048C6.71302 3.2016 6.74448 3.2 6.77595 3.2C7.16102 3.2 7.53168 3.41973 7.74022 3.77813L10.5541 8.64533C10.8143 9.09013 10.7402 9.65493 10.3711 10.0203L10.0127 10.3797L6.13275 3.30453C6.33275 3.25387 6.51835 3.2208 6.68155 3.2048ZM27.5973 28.9675C24.2533 32.3104 17.1589 31.9621 8.84422 23.6512C0.53275 15.3387 0.186083 8.24427 3.52955 4.9008C4.09755 4.33227 4.63888 3.95467 5.13222 3.69653L9.22822 11.1659L8.10662 12.2896C7.46928 12.9275 7.28955 13.9067 7.65915 14.7264C8.19835 15.9216 9.38715 17.8944 11.9919 20.5029C14.5999 23.1109 16.5749 24.2997 17.7727 24.8379C18.593 25.2069 19.5717 25.0267 20.2085 24.3888L21.329 23.2683L28.7999 27.3669C28.5418 27.8597 28.1642 28.4005 27.5973 28.9675ZM29.2943 25.8123C29.2778 25.9771 29.2442 26.1643 29.193 26.3664L22.1146 22.4837L22.4746 22.1237C22.8415 21.7579 23.409 21.6843 23.857 21.9424L28.7215 24.7611C29.1087 24.9845 29.3333 25.3968 29.2943 25.8123ZM26.5882 22.2923L24.3914 21.0192C23.5258 20.5173 22.4271 20.6624 21.7205 21.3691L19.4543 23.6352C19.1237 23.9659 18.6351 24.0571 18.2101 23.8656C17.0933 23.3643 15.2394 22.2427 12.7466 19.7493C10.2554 17.2549 9.13435 15.4032 8.63142 14.2885C8.43995 13.8635 8.53008 13.3755 8.86128 13.0437L11.1247 10.776C11.8373 10.0699 11.9813 8.97227 11.4762 8.1088L10.2058 5.91147C11.9914 3.4592 14.6287 1.808 17.5583 1.264L19.0069 3.86613C19.1487 4.11253 19.4138 4.2656 19.6986 4.2656C19.9834 4.2656 20.2485 4.11253 20.3941 3.85973L21.8378 1.26613C26.5951 2.14667 30.3525 5.904 31.233 10.6613L28.633 12.1088C28.3866 12.2507 28.2335 12.5157 28.2335 12.8005C28.2335 13.0853 28.3866 13.3504 28.6394 13.496L31.2351 14.9408C30.6911 17.8704 29.0399 20.5067 26.5882 22.2923ZM31.4319 12.8C31.4319 13.1365 31.4122 13.4704 31.3839 13.8021L29.5834 12.8L31.3861 11.7968C31.4143 12.128 31.4319 12.4619 31.4319 12.8Z" fill="white"/>
<path d="M16.8955 14.0908C17.9595 13.4545 19.1654 12.7334 19.1654 11.2001C19.1654 9.72971 17.9691 8.53345 16.4987 8.53345C15.4384 8.53345 14.479 9.16118 14.0544 10.1329C13.936 10.4028 14.0598 10.7174 14.3296 10.8348C14.6 10.9558 14.9142 10.8294 15.0315 10.5596C15.287 9.97611 15.8624 9.59958 16.4987 9.59958C17.3808 9.59958 18.0987 10.3174 18.0987 11.1996C18.0987 12.0817 17.4336 12.5254 16.3483 13.1745C15.2272 13.8454 13.832 14.6796 13.832 16.5329C13.832 16.8278 14.0704 17.0662 14.3654 17.0662H18.632C18.927 17.0662 19.1654 16.8278 19.1654 16.5329C19.1654 16.238 18.927 15.9996 18.632 15.9996H14.9627C15.1894 15.111 15.9904 14.6326 16.8955 14.0908Z" fill="white"/>
<path d="M25.0349 13.8666H23.4349V12.7999C23.4349 12.505 23.1965 12.2666 22.9015 12.2666C22.6066 12.2666 22.3682 12.505 22.3682 12.7999V13.8666H21.3575L21.8322 9.11989C21.8615 8.82655 21.6477 8.56522 21.3543 8.53589C21.0626 8.51135 20.7997 8.72095 20.7703 9.01375L20.237 14.3471C20.2221 14.497 20.2711 14.6468 20.3725 14.7583C20.4733 14.8703 20.6173 14.9338 20.7677 14.9338H22.3677V16.5338C22.3677 16.8287 22.6061 17.0671 22.901 17.0671C23.1959 17.0671 23.4343 16.8287 23.4343 16.5338V14.9338H25.0343C25.3293 14.9338 25.5677 14.6954 25.5677 14.4004C25.5677 14.1055 25.3293 13.8671 25.0343 13.8671L25.0349 13.8666Z" fill="white"/>
</g>
<defs>
<clipPath id="clip0_2001_3686">
<rect width="32" height="32" fill="white" transform="translate(0.5)"/>
</clipPath>
</defs>
</svg>
