<svg width="32" height="33" viewBox="0 0 32 33" fill="none" xmlns="http://www.w3.org/2000/svg">
<path d="M11.7939 10.4143H10.7254L9.1425 7.63139V10.4143H8.0625V5.94568H9.1425L10.7254 8.72854V5.94568H11.7996V10.4143H11.7939Z" fill="#69A470"/>
<path d="M16.3265 8.27712C16.3265 8.71141 16.2465 9.09998 16.0865 9.43141C15.9265 9.76855 15.698 10.0257 15.3951 10.2085C15.098 10.3914 14.7551 10.4828 14.378 10.4828C14.0008 10.4828 13.658 10.3971 13.3665 10.22C13.0694 10.0428 12.8408 9.79712 12.6751 9.47141C12.5094 9.14569 12.4237 8.77426 12.418 8.35141V8.09998C12.418 7.65998 12.498 7.27712 12.658 6.93998C12.818 6.60855 13.0465 6.34569 13.3494 6.16284C13.6465 5.97998 13.9894 5.88855 14.3723 5.88855C14.7551 5.88855 15.0865 5.97998 15.3837 6.15712C15.6808 6.33426 15.9094 6.59141 16.0751 6.92855C16.2408 7.25998 16.3265 7.64284 16.3265 8.07141V8.27712ZM15.2294 8.08855C15.2294 7.64284 15.1551 7.30569 15.0065 7.07712C14.858 6.84855 14.6465 6.73426 14.3723 6.73426C13.8294 6.73426 13.5494 7.13998 13.5151 7.95141V8.28284C13.5151 8.72284 13.5837 9.05998 13.7323 9.29426C13.8751 9.52855 14.0923 9.64855 14.378 9.64855C14.6637 9.64855 14.858 9.53426 15.0065 9.29998C15.1551 9.06569 15.2294 8.73426 15.2294 8.29998V8.09426V8.08855Z" fill="#69A470"/>
<path d="M10.8796 14.58H9.1425V16.3629H8.0625V11.8943H11.0511V12.7286H9.13679V13.7571H10.8739V14.5857L10.8796 14.58Z" fill="#69A470"/>
<path d="M13.0562 16.42C12.5477 16.42 12.1362 16.2657 11.8219 15.9628C11.5077 15.66 11.3477 15.2657 11.3477 14.7742V14.6885C11.3477 14.3514 11.4105 14.0485 11.5362 13.7914C11.6619 13.5285 11.8448 13.3285 12.0848 13.1857C12.3248 13.0428 12.6105 12.9742 12.9419 12.9742C13.4105 12.9742 13.7762 13.1171 14.0448 13.4085C14.3134 13.7 14.4505 14.1 14.4505 14.62V15.02H12.3934C12.4277 15.2085 12.5134 15.3514 12.6334 15.46C12.7534 15.5685 12.9191 15.62 13.1191 15.62C13.4448 15.62 13.7019 15.5057 13.8848 15.2771L14.3591 15.8371C14.2277 16.0142 14.0448 16.1571 13.8105 16.26C13.5762 16.3628 13.3191 16.42 13.0505 16.42H13.0562ZM12.9419 13.7742C12.6391 13.7742 12.4562 13.9742 12.3991 14.3742H13.4448V14.2942C13.4448 14.1285 13.4048 14.0028 13.3191 13.9114C13.2334 13.82 13.1077 13.7742 12.9419 13.7742Z" fill="#69A470"/>
<path d="M16.5406 16.42C16.032 16.42 15.6206 16.2657 15.3063 15.9628C14.992 15.66 14.832 15.2657 14.832 14.7742V14.6885C14.832 14.3514 14.8949 14.0485 15.0206 13.7914C15.1463 13.5285 15.3292 13.3285 15.5692 13.1857C15.8092 13.0428 16.0949 12.9742 16.4263 12.9742C16.8949 12.9742 17.2606 13.1171 17.5292 13.4085C17.7977 13.7 17.9349 14.1 17.9349 14.62V15.02H15.8777C15.912 15.2085 15.9977 15.3514 16.1177 15.46C16.2377 15.5685 16.4035 15.62 16.6035 15.62C16.9292 15.62 17.1863 15.5057 17.3692 15.2771L17.8435 15.8371C17.712 16.0142 17.5292 16.1571 17.2949 16.26C17.0606 16.3628 16.8035 16.42 16.5292 16.42H16.5406ZM16.4263 13.7742C16.1235 13.7742 15.9406 13.9742 15.8835 14.3742H16.9292V14.2942C16.9292 14.1285 16.8892 14.0028 16.8035 13.9114C16.7177 13.82 16.5863 13.7742 16.4263 13.7742Z" fill="#69A470"/>
<path d="M20.1601 15.4257C20.1601 15.34 20.1144 15.2657 20.0229 15.2142C19.9315 15.1628 19.7544 15.1057 19.4972 15.0485C19.2401 14.9914 19.0287 14.9171 18.8572 14.82C18.6915 14.7285 18.5601 14.6142 18.4744 14.4828C18.3887 14.3514 18.3429 14.1971 18.3429 14.0257C18.3429 13.7228 18.4687 13.4714 18.7201 13.2714C18.9715 13.0714 19.3029 12.9742 19.7087 12.9742C20.1487 12.9742 20.4972 13.0714 20.7658 13.2714C21.0344 13.4714 21.1658 13.7285 21.1658 14.0542H20.1258C20.1258 13.7857 19.9829 13.6542 19.7029 13.6542C19.5944 13.6542 19.5029 13.6828 19.4287 13.7457C19.3544 13.8085 19.3201 13.8828 19.3201 13.9685C19.3201 14.0542 19.3658 14.1342 19.4572 14.1914C19.5487 14.2485 19.6915 14.2942 19.8858 14.3342C20.0801 14.3742 20.2572 14.4142 20.4058 14.4657C20.9029 14.6371 21.1544 14.9457 21.1544 15.3914C21.1544 15.6942 21.0172 15.94 20.7487 16.1285C20.4801 16.3171 20.1315 16.4142 19.7029 16.4142C19.4172 16.4142 19.1658 16.3628 18.9429 16.26C18.7201 16.1571 18.5487 16.02 18.4229 15.8428C18.2972 15.6657 18.2344 15.4828 18.2344 15.2885H19.2001C19.2001 15.4428 19.2572 15.5514 19.3544 15.6257C19.4515 15.6942 19.5772 15.7342 19.7315 15.7342C19.8744 15.7342 19.9772 15.7057 20.0515 15.6485C20.1201 15.5914 20.1601 15.5171 20.1601 15.4257Z" fill="#69A470"/>
<path d="M23.4275 30.2143H9.71317C9.55888 30.2143 9.41603 30.1515 9.30746 30.0486L4.73603 25.4772C4.62746 25.3686 4.57031 25.2258 4.57031 25.0715V5.64291C4.57031 4.06577 5.85031 2.78577 7.42746 2.78577H25.7132C26.0275 2.78577 26.2846 3.04291 26.2846 3.3572C26.2846 3.67148 26.0275 3.92862 25.7132 3.92862H7.42746C6.4846 3.92862 5.71317 4.70005 5.71317 5.64291V24.8372L9.94745 29.0715H22.856V9.64291C22.856 9.32862 23.1132 9.07148 23.4275 9.07148C23.7417 9.07148 23.9989 9.32862 23.9989 9.64291V29.6429C23.9989 29.9572 23.7417 30.2143 23.4275 30.2143Z" fill="#69A470"/>
<path d="M9.7155 30.2143C9.56693 30.2143 9.41836 30.1571 9.30979 30.0486L4.73836 25.4771C4.57264 25.3114 4.52693 25.0657 4.61264 24.8543C4.69836 24.6429 4.90979 24.5 5.13836 24.5H9.70979C10.0241 24.5 10.2812 24.7571 10.2812 25.0714V29.6429C10.2812 29.8714 10.1441 30.0829 9.92693 30.1686C9.85836 30.1971 9.78407 30.2143 9.70979 30.2143H9.7155ZM6.52121 25.6429L9.14407 28.2657V25.6429H6.52121Z" fill="#69A470"/>
<path d="M24.0006 31.3572C27.4721 31.3572 30.2863 28.543 30.2863 25.0715C30.2863 21.6 27.4721 18.7858 24.0006 18.7858C20.5291 18.7858 17.7148 21.6 17.7148 25.0715C17.7148 28.543 20.5291 31.3572 24.0006 31.3572Z" fill="#5C5C5C"/>
<path d="M30.1582 19.8829H28.9467C28.7125 19.8829 28.5182 19.6886 28.5182 19.4543C28.5182 19.22 28.7125 19.0258 28.9467 19.0258H30.1582C30.3925 19.0258 30.5867 19.22 30.5867 19.4543C30.5867 19.6886 30.3925 19.8829 30.1582 19.8829ZM28.3125 18.6943C28.2039 18.6943 28.0953 18.6543 28.0096 18.5686C27.8439 18.4029 27.8439 18.1286 28.0096 17.9629L28.8667 17.1058C29.0325 16.94 29.3067 16.94 29.4725 17.1058C29.6382 17.2715 29.6382 17.5458 29.4725 17.7115L28.6153 18.5686C28.5296 18.6543 28.421 18.6943 28.3125 18.6943ZM27.1239 18.0658C26.8896 18.0658 26.6953 17.8715 26.6953 17.6372V16.4258C26.6953 16.1915 26.8896 15.9972 27.1239 15.9972C27.3582 15.9972 27.5525 16.1915 27.5525 16.4258V17.6372C27.5525 17.8715 27.3582 18.0658 27.1239 18.0658Z" fill="#5C5C5C"/>
<path d="M23.7423 25.7L23.7708 26.3229C23.7708 26.6886 23.6794 26.9801 23.4965 27.1972H26.4108V28.2715H21.6851V27.1972H22.0965C22.3137 27.1458 22.4165 26.8772 22.4165 26.3972L22.3937 25.7H21.668V24.6486H22.3537L22.3251 23.6372C22.3251 23.0372 22.508 22.5629 22.8737 22.2143C23.2394 21.8658 23.7308 21.6943 24.348 21.6943C24.9651 21.6943 25.4737 21.8601 25.8337 22.1972C26.1937 22.5343 26.3765 22.9858 26.3765 23.5572H25.0965C25.0965 23.3058 25.0337 23.1115 24.9023 22.9743C24.7708 22.8372 24.588 22.7743 24.348 22.7743C24.1537 22.7743 23.988 22.8486 23.8565 22.9915C23.7251 23.1401 23.6623 23.3515 23.6623 23.6372L23.7023 24.6486H25.0794V25.7H23.7423Z" fill="white"/>
<path d="M27.9983 14.2143H23.4269C23.1126 14.2143 22.8555 13.9572 22.8555 13.6429V5.64291C22.8555 4.06577 24.1355 2.78577 25.7126 2.78577C27.2898 2.78577 28.5698 4.06577 28.5698 5.64291V13.6429C28.5698 13.9572 28.3126 14.2143 27.9983 14.2143ZM23.9983 13.0715H27.4269V5.64291C27.4269 4.70005 26.6555 3.92862 25.7126 3.92862C24.7698 3.92862 23.9983 4.70005 23.9983 5.64291V13.0715Z" fill="#69A470"/>
<path d="M17.144 20.5H8.00112C7.68683 20.5 7.42969 20.2429 7.42969 19.9286C7.42969 19.6143 7.68683 19.3572 8.00112 19.3572H17.144C17.4583 19.3572 17.7154 19.6143 17.7154 19.9286C17.7154 20.2429 17.4583 20.5 17.144 20.5Z" fill="#69A470"/>
<path d="M13.7154 22.7857H8.00112C7.68683 22.7857 7.42969 22.5285 7.42969 22.2143C7.42969 21.9 7.68683 21.6428 8.00112 21.6428H13.7154C14.0297 21.6428 14.2868 21.9 14.2868 22.2143C14.2868 22.5285 14.0297 22.7857 13.7154 22.7857Z" fill="#69A470"/>
</svg>
