<svg width="43" height="42" viewBox="0 0 43 42" fill="none" xmlns="http://www.w3.org/2000/svg">
<path d="M25.8323 37.5C25.7723 37.5 25.7048 37.4925 25.6448 37.4775C25.6448 37.4775 25.6223 37.4775 25.6148 37.47L13.8548 33.795L3.58734 37.4625C3.35484 37.545 3.09984 37.5075 2.90484 37.3725C2.70234 37.23 2.58984 37.005 2.58984 36.7575V9.75001C2.58984 9.43501 2.79234 9.15001 3.08484 9.04501L13.5848 5.29501H13.6148V5.28751C13.6823 5.26501 13.7573 5.25751 13.8323 5.25751C13.8773 5.25751 13.9373 5.25751 13.9898 5.27251C13.9898 5.27251 14.0348 5.28001 14.0573 5.28751L25.8398 8.97001L36.1223 6.03001C36.3473 5.97001 36.5948 6.00751 36.7823 6.15001C36.9698 6.29251 37.0823 6.51751 37.0823 6.75001V33.75C37.0823 34.0875 36.8573 34.38 36.5348 34.47L26.0348 37.47C26.0348 37.47 26.0123 37.47 26.0048 37.4775C25.9523 37.4925 25.8923 37.5 25.8398 37.5H25.8323ZM26.5823 10.3125V35.7525L35.5823 33.18V7.74751L26.5823 10.32V10.3125ZM14.5823 32.445L25.0823 35.73V10.305L14.5823 7.02001V32.445ZM4.08234 10.2825V35.685L13.0823 32.4675V7.06501L4.08234 10.2825Z" fill="#69A470"/>
<path d="M21.332 28.6875C21.332 31.74 16.8095 37.71 15.167 39.78C14.867 40.155 14.297 40.155 13.997 39.78C12.3545 37.7175 7.83203 31.74 7.83203 28.6875C7.83203 24.96 10.8545 21.9375 14.582 21.9375C18.3095 21.9375 21.332 24.96 21.332 28.6875Z" fill="#5C5C5C"/>
<path d="M13.8339 31.5C13.6389 31.5 13.4514 31.425 13.3014 31.2825L11.4264 29.4075C11.1339 29.115 11.1339 28.6425 11.4264 28.35C11.7189 28.0575 12.1914 28.0575 12.4839 28.35L13.8264 29.6925L17.0439 26.475C17.3364 26.1825 17.8089 26.1825 18.1014 26.475C18.3939 26.7675 18.3939 27.24 18.1014 27.5325L14.3514 31.2825C14.2014 31.4325 14.0139 31.5 13.8189 31.5H13.8339Z" fill="white"/>
<path d="M9.33224 14.0625C9.21224 14.0625 9.09974 14.025 8.99474 13.95C8.74724 13.7625 8.69474 13.41 8.88224 13.1625C9.20474 12.735 9.56474 12.3375 9.96224 11.9775C10.1947 11.7675 10.5472 11.79 10.7572 12.015C10.9672 12.2475 10.9447 12.6 10.7197 12.81C10.3747 13.125 10.0597 13.47 9.78224 13.8375C9.66974 13.9875 9.50474 14.0625 9.33224 14.0625Z" fill="#69A470"/>
<path d="M29.5225 23.805C29.5225 23.805 29.455 23.805 29.425 23.7975C28.315 23.6025 27.3175 23.1075 26.3725 22.2975C26.14 22.095 26.11 21.7425 26.3125 21.5025C26.515 21.2625 26.8675 21.24 27.1075 21.4425C27.9025 22.125 28.7275 22.53 29.6275 22.695C29.935 22.7475 30.1375 23.04 30.085 23.3475C30.04 23.6175 29.8 23.8125 29.53 23.8125L29.5225 23.805ZM32.515 23.175C32.3425 23.175 32.1775 23.1 32.065 22.95C31.8775 22.7025 31.93 22.35 32.1775 22.1625C32.86 21.6525 33.34 20.805 33.5125 19.8525C33.565 19.545 33.8575 19.3425 34.165 19.395C34.4725 19.4475 34.675 19.74 34.6225 20.0475C34.3975 21.3 33.775 22.365 32.86 23.055C32.755 23.13 32.6425 23.1675 32.5225 23.1675L32.515 23.175ZM24.6775 20.055C24.4975 20.055 24.325 19.9725 24.22 19.815C23.755 19.155 23.32 18.4725 22.855 17.745L22.48 17.16C22.315 16.8975 22.39 16.5525 22.645 16.38C22.9075 16.2075 23.2525 16.29 23.425 16.545L23.8 17.13C24.2575 17.85 24.6925 18.525 25.1425 19.1625C25.3225 19.4175 25.2625 19.77 25.0075 19.9425C24.91 20.01 24.7975 20.0475 24.685 20.0475L24.6775 20.055ZM21.1525 14.8275C20.9875 14.8275 20.815 14.7525 20.71 14.61C20.2825 14.055 19.8625 13.5825 19.435 13.155C19.1725 12.8925 18.9025 12.6525 18.6325 12.4425C18.385 12.255 18.34 11.895 18.535 11.655C18.7225 11.4075 19.075 11.3625 19.3225 11.5575C19.63 11.7975 19.9375 12.0675 20.23 12.36C20.695 12.825 21.1375 13.335 21.595 13.9275C21.7825 14.175 21.745 14.5275 21.4975 14.715C21.3925 14.7975 21.2725 14.835 21.1525 14.835V14.8275ZM13.045 11.385C12.805 11.385 12.5875 11.2275 12.505 10.995C12.415 10.695 12.58 10.38 12.8725 10.29C13.9975 9.93751 15.16 9.87751 16.27 10.11C16.5775 10.17 16.7725 10.47 16.705 10.7775C16.645 11.085 16.345 11.2725 16.0375 11.2125C15.115 11.0175 14.1475 11.07 13.21 11.37C13.15 11.385 13.0975 11.3925 13.0375 11.3925L13.045 11.385Z" fill="#69A470"/>
<path d="M33.5722 17.43C33.3772 17.43 33.1897 17.3325 33.0847 17.1525C32.8672 16.7775 32.5822 16.455 32.2447 16.2C31.9972 16.0125 31.9447 15.66 32.1322 15.4125C32.3197 15.165 32.6722 15.1125 32.9197 15.3C33.3772 15.645 33.7597 16.08 34.0597 16.5825C34.2172 16.8525 34.1272 17.1975 33.8572 17.3475C33.7672 17.4 33.6697 17.4225 33.5722 17.4225V17.43Z" fill="#69A470"/>
<path d="M7.52359 23.19H5.93359C5.62609 23.19 5.37109 22.935 5.37109 22.6275C5.37109 22.32 5.62609 22.065 5.93359 22.065H7.52359C7.83109 22.065 8.08609 22.32 8.08609 22.6275C8.08609 22.935 7.83109 23.19 7.52359 23.19ZM8.34859 21.63C8.20609 21.63 8.06359 21.5775 7.95109 21.465L6.82609 20.34C6.60859 20.1225 6.60859 19.7625 6.82609 19.545C7.04359 19.3275 7.40359 19.3275 7.62109 19.545L8.74609 20.67C8.96359 20.8875 8.96359 21.2475 8.74609 21.465C8.63359 21.5775 8.49109 21.63 8.34859 21.63ZM9.90859 20.805C9.60109 20.805 9.34609 20.55 9.34609 20.2425V18.6525C9.34609 18.345 9.60109 18.09 9.90859 18.09C10.2161 18.09 10.4711 18.345 10.4711 18.6525V20.2425C10.4711 20.55 10.2161 20.805 9.90859 20.805Z" fill="#5C5C5C"/>
</svg>
