<svg width="32" height="32" viewBox="0 0 32 32" fill="none" xmlns="http://www.w3.org/2000/svg">
<path d="M16.0017 30.2857C15.8702 30.2857 15.7445 30.2399 15.636 30.1542C15.2074 29.7999 5.14453 21.3085 5.14453 12.5714C5.14453 6.5828 10.0131 1.71423 16.0017 1.71423C21.9902 1.71423 26.8588 6.5828 26.8588 12.5714C26.8588 21.3085 16.796 29.7942 16.3674 30.1542C16.2588 30.2399 16.1331 30.2857 16.0017 30.2857ZM16.0017 2.85709C10.6474 2.85709 6.28739 7.21709 6.28739 12.5714C6.28739 19.8742 14.1902 27.3428 16.0017 28.9542C17.8131 27.3371 25.716 19.8685 25.716 12.5714C25.716 7.21709 21.356 2.85709 16.0017 2.85709Z" fill="#69A470"/>
<path d="M15.9989 20C11.9017 20 8.57031 16.6685 8.57031 12.5714C8.57031 8.47425 11.9017 5.14282 15.9989 5.14282C20.096 5.14282 23.4275 8.47425 23.4275 12.5714C23.4275 16.6685 20.096 20 15.9989 20ZM15.9989 6.28568C12.5303 6.28568 9.71317 9.10282 9.71317 12.5714C9.71317 16.04 12.5303 18.8571 15.9989 18.8571C19.4675 18.8571 22.2846 16.04 22.2846 12.5714C22.2846 9.10282 19.4675 6.28568 15.9989 6.28568Z" fill="#69A470"/>
<path d="M28.5936 24.3601L31.1936 21.7601C31.6393 21.3143 31.6393 20.5886 31.1936 20.1429L26.7479 15.6972C26.3022 15.2515 25.5765 15.2515 25.1307 15.6972L22.5307 18.2972C22.1593 18.6686 22.0907 19.2458 22.3593 19.6915L23.1136 20.9486L15.4336 28.6286L15.7536 31.3715L18.2622 31.4572L19.1822 30.5372L20.645 29.8858L21.2793 28.4458L21.9022 27.8229L23.3079 27.2229L23.8222 25.8972L25.9365 23.7829L27.1936 24.5372C27.645 24.8058 28.2165 24.7372 28.5879 24.3658L28.5936 24.3601Z" fill="#5C5C5C"/>
<path d="M17.4584 30.2686C17.3498 30.2686 17.2413 30.2286 17.1555 30.1429C16.9898 29.9772 16.9898 29.7029 17.1555 29.5372L22.8127 23.88C23.1898 23.5029 23.847 23.5029 24.2298 23.88L24.4641 24.1143C24.6298 24.28 24.6298 24.5543 24.4641 24.72C24.2984 24.8857 24.0241 24.8857 23.8584 24.72L23.6241 24.4857C23.567 24.4286 23.4755 24.4286 23.4241 24.4857L17.767 30.1429C17.6812 30.2286 17.5727 30.2686 17.4641 30.2686H17.4584Z" fill="white"/>
<path d="M28.2849 21.4286C28.1363 21.4286 27.9935 21.3715 27.8792 21.2629L25.3078 18.6915C25.0849 18.4686 25.0849 18.1086 25.3078 17.8858C25.5306 17.6629 25.8906 17.6629 26.1135 17.8858L28.6849 20.4572C28.9078 20.6801 28.9078 21.0401 28.6849 21.2629C28.5706 21.3772 28.4278 21.4286 28.2792 21.4286H28.2849Z" fill="white"/>
<path d="M15.4817 12.9257L13.8645 11.3086C13.6417 11.0857 13.2817 11.0857 13.0588 11.3086L12.2531 12.1143C12.0302 12.3372 12.0302 12.6972 12.2531 12.92L15.0817 15.7486C15.3045 15.9714 15.6645 15.9714 15.8874 15.7486L20.3331 11.3029C20.5559 11.08 20.5559 10.72 20.3331 10.4972L19.5274 9.69143C19.3045 9.46858 18.9445 9.46858 18.7217 9.69143L15.4874 12.9257H15.4817Z" fill="#5C5C5C"/>
<path d="M16.3041 25.1086H15.0926C14.8583 25.1086 14.6641 24.9143 14.6641 24.68C14.6641 24.4458 14.8583 24.2515 15.0926 24.2515H16.3041C16.5383 24.2515 16.7326 24.4458 16.7326 24.68C16.7326 24.9143 16.5383 25.1086 16.3041 25.1086ZM16.9326 23.92C16.8241 23.92 16.7155 23.88 16.6298 23.7943L15.7726 22.9372C15.6069 22.7715 15.6069 22.4972 15.7726 22.3315C15.9383 22.1658 16.2126 22.1658 16.3783 22.3315L17.2355 23.1886C17.4012 23.3543 17.4012 23.6286 17.2355 23.7943C17.1498 23.88 17.0412 23.92 16.9326 23.92ZM18.1212 23.2915C17.8869 23.2915 17.6926 23.0972 17.6926 22.8629V21.6515C17.6926 21.4172 17.8869 21.2229 18.1212 21.2229C18.3555 21.2229 18.5498 21.4172 18.5498 21.6515V22.8629C18.5498 23.0972 18.3555 23.2915 18.1212 23.2915Z" fill="#5C5C5C"/>
</svg>
