<svg width="42" height="43" viewBox="0 0 42 43" fill="none" xmlns="http://www.w3.org/2000/svg">
<path d="M22.5 40.25H13.5C13.0875 40.25 12.75 39.9125 12.75 39.5C12.75 37.8425 11.4075 36.5 9.75 36.5C9.3375 36.5 9 36.1625 9 35.75V7.25C9 6.8375 9.3375 6.5 9.75 6.5C11.4075 6.5 12.75 5.1575 12.75 3.5C12.75 3.0875 13.0875 2.75 13.5 2.75H22.5C22.9125 2.75 23.25 3.0875 23.25 3.5C23.25 5.1575 24.5925 6.5 26.25 6.5C26.6625 6.5 27 6.8375 27 7.25V35.75C27 36.1625 26.6625 36.5 26.25 36.5C24.5925 36.5 23.25 37.8425 23.25 39.5C23.25 39.9125 22.9125 40.25 22.5 40.25ZM14.19 38.75H21.8175C22.1325 36.8675 23.625 35.3825 25.5075 35.06V7.94C23.625 7.625 22.14 6.1325 21.8175 4.25H14.19C13.875 6.1325 12.3825 7.6175 10.5 7.94V35.06C12.3825 35.375 13.8675 36.8675 14.19 38.75Z" fill="#69A470"/>
<path d="M18 29C15.93 29 14.25 27.32 14.25 25.25C14.25 23.18 15.93 21.5 18 21.5C20.07 21.5 21.75 23.18 21.75 25.25C21.75 27.32 20.07 29 18 29ZM18 23C16.7625 23 15.75 24.0125 15.75 25.25C15.75 26.4875 16.7625 27.5 18 27.5C19.2375 27.5 20.25 26.4875 20.25 25.25C20.25 24.0125 19.2375 23 18 23Z" fill="#69A470"/>
<path d="M18 19.25C15.105 19.25 12.75 16.895 12.75 14C12.75 11.105 15.105 8.75 18 8.75C20.895 8.75 23.25 11.105 23.25 14C23.25 16.895 20.895 19.25 18 19.25ZM18 10.25C15.93 10.25 14.25 11.93 14.25 14C14.25 16.07 15.93 17.75 18 17.75C20.07 17.75 21.75 16.07 21.75 14C21.75 11.93 20.07 10.25 18 10.25Z" fill="#69A470"/>
<path d="M18 33.5C16.7625 33.5 15.75 32.4875 15.75 31.25V28.25C15.75 27.8375 16.0875 27.5 16.5 27.5C16.9125 27.5 17.25 27.8375 17.25 28.25V31.25C17.25 31.6625 17.5875 32 18 32C18.4125 32 18.75 31.6625 18.75 31.25V28.25C18.75 27.8375 19.0875 27.5 19.5 27.5C19.9125 27.5 20.25 27.8375 20.25 28.25V31.25C20.25 32.4875 19.2375 33.5 18 33.5Z" fill="#69A470"/>
<path d="M9.75076 18.5H6.00076C5.65576 18.5 5.35576 18.2675 5.27326 17.93L4.52326 14.93C4.46326 14.705 4.52326 14.465 4.65826 14.285C4.80076 14.105 5.01826 14 5.25076 14H9.75076C10.1633 14 10.5008 14.3375 10.5008 14.75V17.75C10.5008 18.1625 10.1633 18.5 9.75076 18.5ZM6.58576 17H9.00076V15.5H6.21076L6.58576 17Z" fill="#69A470"/>
<path d="M9.75 24.5H3.75C3.3375 24.5 3 24.1625 3 23.75V20.75C3 20.3375 3.3375 20 3.75 20H9.75C10.1625 20 10.5 20.3375 10.5 20.75V23.75C10.5 24.1625 10.1625 24.5 9.75 24.5ZM4.5 23H9V21.5H4.5V23Z" fill="#69A470"/>
<path d="M9.75194 30.5H5.25194C5.01944 30.5 4.80194 30.395 4.65944 30.215C4.51694 30.035 4.46444 29.795 4.52444 29.57L5.27444 26.57C5.35694 26.2325 5.65694 26 6.00194 26H9.75194C10.1644 26 10.5019 26.3375 10.5019 26.75V29.75C10.5019 30.1625 10.1644 30.5 9.75194 30.5ZM6.21194 29H9.00194V27.5H6.58694L6.21194 29Z" fill="#69A470"/>
<path d="M18 26.75C17.5875 26.75 17.25 26.4125 17.25 26V24.5C17.25 24.0875 17.5875 23.75 18 23.75C18.4125 23.75 18.75 24.0875 18.75 24.5V26C18.75 26.4125 18.4125 26.75 18 26.75Z" fill="#69A470"/>
<path d="M18 11.75H36.75V16.25H18C16.755 16.25 15.75 15.245 15.75 14C15.75 12.755 16.755 11.75 18 11.75Z" fill="white"/>
<path d="M36.75 17H18C16.3425 17 15 15.6575 15 14C15 12.3425 16.3425 11 18 11H36.75C37.1625 11 37.5 11.3375 37.5 11.75V16.25C37.5 16.6625 37.1625 17 36.75 17ZM18 12.5C17.175 12.5 16.5 13.175 16.5 14C16.5 14.825 17.175 15.5 18 15.5H36V12.5H18Z" fill="#69A470"/>
<path d="M38.9994 32.915V31.085C38.9994 30.74 38.7669 30.44 38.4294 30.3575L36.8319 29.96C36.5844 29.9 36.3894 29.7125 36.3069 29.465C36.2244 29.2175 36.1344 29.015 36.0294 28.79C35.9244 28.5575 35.9244 28.295 36.0519 28.07L36.8994 26.66C37.0794 26.3675 37.0269 25.985 36.7869 25.745L35.4969 24.455C35.2569 24.215 34.8744 24.1625 34.5819 24.3425L33.1719 25.19C32.9544 25.325 32.6844 25.325 32.4519 25.2125C32.2344 25.1075 32.0094 25.0175 31.7769 24.935C31.5369 24.8525 31.3494 24.6575 31.2819 24.41L30.8844 22.8125C30.8019 22.475 30.5019 22.2425 30.1569 22.2425H28.3269C27.9819 22.2425 27.6819 22.475 27.5994 22.8125L27.2019 24.41C27.1419 24.6575 26.9544 24.8525 26.7069 24.935C26.4594 25.0175 26.2569 25.1075 26.0319 25.2125C25.7994 25.3175 25.5369 25.3175 25.3119 25.19L23.9019 24.3425C23.6094 24.1625 23.2269 24.215 22.9869 24.455L21.6969 25.745C21.4569 25.985 21.4044 26.3675 21.5844 26.66L22.4319 28.07C22.5669 28.2875 22.5669 28.5575 22.4544 28.79C22.3494 29.0075 22.2594 29.2325 22.1769 29.465C22.0944 29.705 21.8994 29.8925 21.6519 29.96L20.0544 30.3575C19.7169 30.44 19.4844 30.74 19.4844 31.085V32.915C19.4844 33.26 19.7169 33.56 20.0544 33.6425L21.6519 34.04C21.8994 34.1 22.0944 34.2875 22.1769 34.535C22.2594 34.7825 22.3494 34.985 22.4544 35.21C22.5594 35.4425 22.5594 35.705 22.4319 35.93L21.5844 37.34C21.4044 37.6325 21.4569 38.015 21.6969 38.255L22.9869 39.545C23.2269 39.785 23.6094 39.8375 23.9019 39.6575L25.3119 38.81C25.5294 38.675 25.7994 38.675 26.0319 38.7875C26.2494 38.8925 26.4744 38.9825 26.7069 39.065C26.9469 39.1475 27.1344 39.3425 27.2019 39.59L27.5994 41.1875C27.6819 41.525 27.9819 41.7575 28.3269 41.7575H30.1569C30.5019 41.7575 30.8019 41.525 30.8844 41.1875L31.2819 39.59C31.3419 39.3425 31.5294 39.1475 31.7769 39.065C32.0244 38.9825 32.2269 38.8925 32.4519 38.7875C32.6844 38.6825 32.9469 38.6825 33.1719 38.81L34.5819 39.6575C34.8744 39.8375 35.2569 39.785 35.4969 39.545L36.7869 38.255C37.0269 38.015 37.0794 37.6325 36.8994 37.34L36.0519 35.93C35.9169 35.7125 35.9169 35.4425 36.0294 35.21C36.1344 34.9925 36.2244 34.7675 36.3069 34.535C36.3894 34.295 36.5844 34.1075 36.8319 34.04L38.4294 33.6425C38.7669 33.56 38.9994 33.26 38.9994 32.915Z" fill="#5C5C5C"/>
<path d="M29.25 39.5C33.3921 39.5 36.75 36.1421 36.75 32C36.75 27.8579 33.3921 24.5 29.25 24.5C25.1079 24.5 21.75 27.8579 21.75 32C21.75 36.1421 25.1079 39.5 29.25 39.5Z" fill="#5C5C5C"/>
<path d="M29.25 37.25C26.355 37.25 24 34.895 24 32C24 29.105 26.355 26.75 29.25 26.75C32.145 26.75 34.5 29.105 34.5 32C34.5 34.895 32.145 37.25 29.25 37.25ZM29.25 28.25C27.18 28.25 25.5 29.93 25.5 32C25.5 34.07 27.18 35.75 29.25 35.75C31.32 35.75 33 34.07 33 32C33 29.93 31.32 28.25 29.25 28.25Z" fill="white"/>
<path d="M40.3344 25.19H38.7444C38.4369 25.19 38.1819 24.935 38.1819 24.6275C38.1819 24.32 38.4369 24.065 38.7444 24.065H40.3344C40.6419 24.065 40.8969 24.32 40.8969 24.6275C40.8969 24.935 40.6419 25.19 40.3344 25.19ZM37.9194 23.63C37.7769 23.63 37.6344 23.5775 37.5219 23.465C37.3044 23.2475 37.3044 22.8875 37.5219 22.67L38.6469 21.545C38.8644 21.3275 39.2244 21.3275 39.4419 21.545C39.6594 21.7625 39.6594 22.1225 39.4419 22.34L38.3169 23.465C38.2044 23.5775 38.0619 23.63 37.9194 23.63ZM36.3594 22.805C36.0519 22.805 35.7969 22.55 35.7969 22.2425V20.6525C35.7969 20.345 36.0519 20.09 36.3594 20.09C36.6669 20.09 36.9219 20.345 36.9219 20.6525V22.2425C36.9219 22.55 36.6669 22.805 36.3594 22.805Z" fill="#5C5C5C"/>
</svg>
