<svg width="42" height="42" viewBox="0 0 42 42" fill="none" xmlns="http://www.w3.org/2000/svg">
<path d="M21.75 39.75H12.75C12.3375 39.75 12 39.4125 12 39C12 37.3425 10.6575 36 9 36C8.5875 36 8.25 35.6625 8.25 35.25V6.75C8.25 6.3375 8.5875 6 9 6C10.6575 6 12 4.6575 12 3C12 2.5875 12.3375 2.25 12.75 2.25H21.75C22.1625 2.25 22.5 2.5875 22.5 3C22.5 4.6575 23.8425 6 25.5 6C25.9125 6 26.25 6.3375 26.25 6.75V35.25C26.25 35.6625 25.9125 36 25.5 36C23.8425 36 22.5 37.3425 22.5 39C22.5 39.4125 22.1625 39.75 21.75 39.75ZM13.44 38.25H21.0675C21.3825 36.3675 22.875 34.8825 24.7575 34.56V7.44C22.875 7.125 21.39 5.6325 21.0675 3.75H13.44C13.125 5.6325 11.6325 7.1175 9.75 7.44V34.56C11.6325 34.875 13.1175 36.3675 13.44 38.25Z" fill="#69A470"/>
<path d="M17.25 28.5C15.18 28.5 13.5 26.82 13.5 24.75C13.5 22.68 15.18 21 17.25 21C19.32 21 21 22.68 21 24.75C21 26.82 19.32 28.5 17.25 28.5ZM17.25 22.5C16.0125 22.5 15 23.5125 15 24.75C15 25.9875 16.0125 27 17.25 27C18.4875 27 19.5 25.9875 19.5 24.75C19.5 23.5125 18.4875 22.5 17.25 22.5Z" fill="#69A470"/>
<path d="M17.25 18.75C14.355 18.75 12 16.395 12 13.5C12 10.605 14.355 8.25 17.25 8.25C20.145 8.25 22.5 10.605 22.5 13.5C22.5 16.395 20.145 18.75 17.25 18.75ZM17.25 9.75C15.18 9.75 13.5 11.43 13.5 13.5C13.5 15.57 15.18 17.25 17.25 17.25C19.32 17.25 21 15.57 21 13.5C21 11.43 19.32 9.75 17.25 9.75Z" fill="#69A470"/>
<path d="M17.25 33C16.0125 33 15 31.9875 15 30.75V27.75C15 27.3375 15.3375 27 15.75 27C16.1625 27 16.5 27.3375 16.5 27.75V30.75C16.5 31.1625 16.8375 31.5 17.25 31.5C17.6625 31.5 18 31.1625 18 30.75V27.75C18 27.3375 18.3375 27 18.75 27C19.1625 27 19.5 27.3375 19.5 27.75V30.75C19.5 31.9875 18.4875 33 17.25 33Z" fill="#69A470"/>
<path d="M9.00146 18H5.25146C4.90646 18 4.60646 17.7675 4.52396 17.43L3.77396 14.43C3.72146 14.205 3.77396 13.965 3.90896 13.785C4.05146 13.605 4.26896 13.5 4.50146 13.5H9.00146C9.41396 13.5 9.75146 13.8375 9.75146 14.25V17.25C9.75146 17.6625 9.41396 18 9.00146 18ZM5.83646 16.5H8.25146V15H5.46146L5.83646 16.5Z" fill="#69A470"/>
<path d="M9 24H3C2.5875 24 2.25 23.6625 2.25 23.25V20.25C2.25 19.8375 2.5875 19.5 3 19.5H9C9.4125 19.5 9.75 19.8375 9.75 20.25V23.25C9.75 23.6625 9.4125 24 9 24ZM3.75 22.5H8.25V21H3.75V22.5Z" fill="#69A470"/>
<path d="M9.00194 30H4.50194C4.26944 30 4.05194 29.895 3.90944 29.715C3.76694 29.535 3.71444 29.295 3.77444 29.07L4.52444 26.07C4.60694 25.7325 4.90694 25.5 5.25194 25.5H9.00194C9.41444 25.5 9.75194 25.8375 9.75194 26.25V29.25C9.75194 29.6625 9.41444 30 9.00194 30ZM5.46194 28.5H8.25194V27H5.83694L5.46194 28.5Z" fill="#69A470"/>
<path d="M17.25 26.25C16.8375 26.25 16.5 25.9125 16.5 25.5V24C16.5 23.5875 16.8375 23.25 17.25 23.25C17.6625 23.25 18 23.5875 18 24V25.5C18 25.9125 17.6625 26.25 17.25 26.25Z" fill="#69A470"/>
<path d="M17.25 11.25H36V15.75H17.25C16.005 15.75 15 14.745 15 13.5C15 12.255 16.005 11.25 17.25 11.25Z" fill="white"/>
<path d="M36 16.5H17.25C15.5925 16.5 14.25 15.1575 14.25 13.5C14.25 11.8425 15.5925 10.5 17.25 10.5H36C36.4125 10.5 36.75 10.8375 36.75 11.25V15.75C36.75 16.1625 36.4125 16.5 36 16.5ZM17.25 12C16.425 12 15.75 12.675 15.75 13.5C15.75 14.325 16.425 15 17.25 15H35.25V12H17.25Z" fill="#69A470"/>
<path d="M30.2546 26.6325L23.5871 19.965C23.5046 19.8825 23.4446 19.785 23.4071 19.68L22.9871 18.4575C22.9346 18.3075 22.8296 18.1725 22.6946 18.0825L20.1596 16.3725C19.8596 16.17 19.4621 16.2075 19.2071 16.4625L17.9621 17.7075C17.7071 17.9625 17.6696 18.36 17.8721 18.66L19.5821 21.195C19.6721 21.33 19.8071 21.435 19.9571 21.4875L21.1796 21.9075C21.2846 21.945 21.3821 22.005 21.4646 22.0875L28.1321 28.755C28.4246 29.0475 28.4246 29.52 28.1321 29.8125L27.5996 30.345C27.3071 30.6375 27.3071 31.11 27.5996 31.4025L28.9721 32.775C29.1146 32.9175 29.3021 32.9925 29.5046 32.9925H29.9471C30.1496 32.9925 30.3371 33.075 30.4796 33.21L34.4996 37.23C35.6696 38.4 37.5671 38.4 38.7446 37.23C39.9146 36.06 39.9146 34.1625 38.7446 32.985L34.7246 28.965C34.5821 28.8225 34.5071 28.635 34.5071 28.4325V27.99C34.5071 27.7875 34.4246 27.6 34.2896 27.4575L32.9171 26.085C32.6246 25.7925 32.1521 25.7925 31.8596 26.085L31.3271 26.6175C31.0346 26.91 30.5621 26.91 30.2696 26.6175L30.2546 26.6325Z" fill="#5C5C5C"/>
<path d="M36.7519 36C36.5569 36 36.3694 35.925 36.2194 35.7825L32.0944 31.6575C31.8019 31.365 31.8019 30.8925 32.0944 30.6C32.3869 30.3075 32.8594 30.3075 33.1519 30.6L37.2769 34.725C37.5694 35.0175 37.5694 35.49 37.2769 35.7825C37.1269 35.9325 36.9394 36 36.7444 36H36.7519Z" fill="white"/>
<path d="M37.3341 26.19H35.7441C35.4366 26.19 35.1816 25.935 35.1816 25.6275C35.1816 25.32 35.4366 25.065 35.7441 25.065H37.3341C37.6416 25.065 37.8966 25.32 37.8966 25.6275C37.8966 25.935 37.6416 26.19 37.3341 26.19ZM34.9116 24.63C34.7691 24.63 34.6266 24.5775 34.5141 24.465C34.2966 24.2475 34.2966 23.8875 34.5141 23.67L35.6391 22.545C35.8566 22.3275 36.2166 22.3275 36.4341 22.545C36.6516 22.7625 36.6516 23.1225 36.4341 23.34L35.3091 24.465C35.1966 24.5775 35.0541 24.63 34.9116 24.63ZM33.3516 23.805C33.0441 23.805 32.7891 23.55 32.7891 23.2425V21.6525C32.7891 21.345 33.0441 21.09 33.3516 21.09C33.6591 21.09 33.9141 21.345 33.9141 21.6525V23.2425C33.9141 23.55 33.6591 23.805 33.3516 23.805Z" fill="#5C5C5C"/>
</svg>
