<svg width="42" height="42" viewBox="0 0 42 42" fill="none" xmlns="http://www.w3.org/2000/svg">
<path d="M30.9825 22.3425C30.84 22.3425 30.6975 22.29 30.585 22.1775C30.3675 21.96 30.3675 21.6 30.585 21.3825L31.71 20.2575C31.9275 20.04 32.2875 20.04 32.505 20.2575C32.7225 20.475 32.7225 20.835 32.505 21.0525L31.38 22.1775C31.2675 22.29 31.125 22.3425 30.9825 22.3425ZM27.6075 22.3425C27.465 22.3425 27.3225 22.29 27.21 22.1775L26.085 21.0525C25.8675 20.835 25.8675 20.475 26.085 20.2575C26.3025 20.04 26.6625 20.04 26.88 20.2575L28.005 21.3825C28.2225 21.6 28.2225 21.96 28.005 22.1775C27.8925 22.29 27.75 22.3425 27.6075 22.3425ZM29.295 21.825C28.9875 21.825 28.7325 21.57 28.7325 21.2625V19.6725C28.7325 19.365 28.9875 19.11 29.295 19.11C29.6025 19.11 29.8575 19.365 29.8575 19.6725V21.2625C29.8575 21.57 29.6025 21.825 29.295 21.825Z" fill="#5C5C5C"/>
<path d="M21 38.25C11.49 38.25 3.75 30.51 3.75 21C3.75 11.49 11.49 3.75 21 3.75C30.51 3.75 38.25 11.49 38.25 21C38.25 30.51 30.51 38.25 21 38.25ZM21 5.25C12.315 5.25 5.25 12.315 5.25 21C5.25 29.685 12.315 36.75 21 36.75C29.685 36.75 36.75 29.685 36.75 21C36.75 12.315 29.685 5.25 21 5.25Z" fill="#69A470"/>
<path d="M19.7328 21.8025L19.8003 23.3325C19.8003 24.2325 19.5753 24.9525 19.1178 25.485H26.2953V28.1325H14.6628V25.485H15.6753C16.2003 25.35 16.4628 24.6975 16.4628 23.52L16.4103 21.8025H14.6328V19.2075H16.3278L16.2528 16.71C16.2528 15.2325 16.7028 14.0625 17.6103 13.2075C18.5178 12.3525 19.7253 11.925 21.2403 11.925C22.7553 11.925 24.0153 12.3375 24.9003 13.1625C25.7853 13.9875 26.2278 15.105 26.2278 16.5075H23.0778C23.0778 15.885 22.9203 15.4125 22.5978 15.0825C22.2828 14.7525 21.8253 14.5875 21.2328 14.5875C20.7528 14.5875 20.3478 14.7675 20.0328 15.1275C19.7178 15.4875 19.5528 16.02 19.5528 16.7175L19.6503 19.215H23.0478V21.81H19.7553L19.7328 21.8025Z" fill="#69A470"/>
<path d="M21 35.25C13.14 35.25 6.75 28.86 6.75 21C6.75 13.14 13.14 6.75 21 6.75C28.86 6.75 35.25 13.14 35.25 21C35.25 28.86 28.86 35.25 21 35.25ZM21 8.25C13.9725 8.25 8.25 13.9725 8.25 21C8.25 28.0275 13.9725 33.75 21 33.75C28.0275 33.75 33.75 28.0275 33.75 21C33.75 13.9725 28.0275 8.25 21 8.25Z" fill="#69A470"/>
<path d="M31.5 40.5C36.0563 40.5 39.75 36.8063 39.75 32.25C39.75 27.6937 36.0563 24 31.5 24C26.9437 24 23.25 27.6937 23.25 32.25C23.25 36.8063 26.9437 40.5 31.5 40.5Z" fill="#5C5C5C"/>
<path d="M33.8848 35.385C33.6898 35.385 33.5023 35.31 33.3523 35.1675L31.4923 33.315L29.6323 35.1675C29.3398 35.46 28.8673 35.46 28.5748 35.1675C28.2823 34.875 28.2823 34.4025 28.5748 34.11L30.4273 32.2575L28.5748 30.405C28.2823 30.1125 28.2823 29.64 28.5748 29.3475C28.8673 29.055 29.3398 29.055 29.6323 29.3475L31.4923 31.2L33.3523 29.3475C33.6448 29.055 34.1173 29.055 34.4098 29.3475C34.7023 29.64 34.7023 30.1125 34.4098 30.405L32.5573 32.2575L34.4098 34.11C34.7023 34.4025 34.7023 34.875 34.4098 35.1675C34.2598 35.3175 34.0723 35.385 33.8773 35.385H33.8848Z" fill="white"/>
</svg>
