<svg width="42" height="42" viewBox="0 0 42 42" fill="none" xmlns="http://www.w3.org/2000/svg">
<path d="M33.75 27.75C33.3375 27.75 33 27.4125 33 27V6H30.75C30.3375 6 30 5.6625 30 5.25C30 4.8375 30.3375 4.5 30.75 4.5H33.75C34.1625 4.5 34.5 4.8375 34.5 5.25V27C34.5 27.4125 34.1625 27.75 33.75 27.75Z" fill="#69A470"/>
<path d="M30.75 39H12.75C12.5475 39 12.36 38.9175 12.2175 38.7825L6.2175 32.7825C6.075 32.64 6 32.4525 6 32.25V3.75C6 3.3375 6.3375 3 6.75 3H30.75C31.1625 3 31.5 3.3375 31.5 3.75V38.25C31.5 38.6625 31.1625 39 30.75 39ZM13.0575 37.5H30V4.5H7.5V31.9425L13.0575 37.5Z" fill="#69A470"/>
<path d="M12.9541 13.4775L14.2291 8.82001H15.9541L13.8016 15.2175H12.1141L9.97656 8.82001H11.6866L12.9541 13.4775Z" fill="#69A470"/>
<path d="M19.8083 14.025H17.6933L17.3258 15.2175H15.6758L18.0233 8.82001H19.4708L21.8333 15.2175H20.1758L19.8008 14.025H19.8083ZM18.0608 12.8325H19.4333L18.7433 10.6125L18.0608 12.8325Z" fill="#69A470"/>
<path d="M26.8983 10.0125H24.9783V15.2175H23.4333V10.0125H21.5508V8.82001H26.8983V10.0125Z" fill="#69A470"/>
<path d="M12.7492 39C12.5542 39 12.3592 38.925 12.2167 38.7825L6.21665 32.7825C5.99915 32.565 5.93915 32.2425 6.05165 31.965C6.16415 31.6875 6.44165 31.5 6.74165 31.5H12.7417C13.1542 31.5 13.4917 31.8375 13.4917 32.25V38.25C13.4917 38.55 13.3117 38.8275 13.0267 38.94C12.9367 38.9775 12.8392 39 12.7417 39H12.7492ZM8.55665 33L11.9992 36.4425V33H8.55665Z" fill="#69A470"/>
<path d="M21.75 28.5H19.095C18.6825 28.5 18.345 28.1625 18.345 27.75C18.345 27.3375 18.6825 27 19.095 27H21.75C22.1625 27 22.5 27.3375 22.5 27.75C22.5 28.1625 22.1625 28.5 21.75 28.5ZM15.8175 28.5H11.25C10.8375 28.5 10.5 28.1625 10.5 27.75C10.5 27.3375 10.8375 27 11.25 27H15.8175C16.23 27 16.5675 27.3375 16.5675 27.75C16.5675 28.1625 16.23 28.5 15.8175 28.5ZM24 25.5H11.25C10.8375 25.5 10.5 25.1625 10.5 24.75C10.5 24.3375 10.8375 24 11.25 24H24C24.4125 24 24.75 24.3375 24.75 24.75C24.75 25.1625 24.4125 25.5 24 25.5ZM21.75 22.5H11.25C10.8375 22.5 10.5 22.1625 10.5 21.75C10.5 21.3375 10.8375 21 11.25 21H21.75C22.1625 21 22.5 21.3375 22.5 21.75C22.5 22.1625 22.1625 22.5 21.75 22.5ZM25.5 19.5H11.25C10.8375 19.5 10.5 19.1625 10.5 18.75C10.5 18.3375 10.8375 18 11.25 18H25.5C25.9125 18 26.25 18.3375 26.25 18.75C26.25 19.1625 25.9125 19.5 25.5 19.5Z" fill="#69A470"/>
<path d="M31.5 40.5C36.0563 40.5 39.75 36.8063 39.75 32.25C39.75 27.6937 36.0563 24 31.5 24C26.9437 24 23.25 27.6937 23.25 32.25C23.25 36.8063 26.9437 40.5 31.5 40.5Z" fill="#5C5C5C"/>
<path d="M33.8848 35.385C33.6898 35.385 33.5023 35.31 33.3523 35.1675L31.4923 33.315L29.6323 35.1675C29.3398 35.46 28.8673 35.46 28.5748 35.1675C28.2823 34.875 28.2823 34.4025 28.5748 34.11L30.4273 32.2575L28.5748 30.405C28.2823 30.1125 28.2823 29.64 28.5748 29.3475C28.8673 29.055 29.3398 29.055 29.6323 29.3475L31.4923 31.2L33.3523 29.3475C33.6448 29.055 34.1173 29.055 34.4098 29.3475C34.7023 29.64 34.7023 30.1125 34.4098 30.405L32.5573 32.2575L34.4098 34.11C34.7023 34.4025 34.7023 34.875 34.4098 35.1675C34.2598 35.3175 34.0723 35.385 33.8773 35.385H33.8848Z" fill="white"/>
<path d="M39.5841 25.44H37.9941C37.6866 25.44 37.4316 25.185 37.4316 24.8775C37.4316 24.57 37.6866 24.315 37.9941 24.315H39.5841C39.8916 24.315 40.1466 24.57 40.1466 24.8775C40.1466 25.185 39.8916 25.44 39.5841 25.44ZM37.1616 23.88C37.0191 23.88 36.8766 23.8275 36.7641 23.715C36.5466 23.4975 36.5466 23.1375 36.7641 22.92L37.8891 21.795C38.1066 21.5775 38.4666 21.5775 38.6841 21.795C38.9016 22.0125 38.9016 22.3725 38.6841 22.59L37.5591 23.715C37.4466 23.8275 37.3041 23.88 37.1616 23.88ZM35.6016 23.055C35.2941 23.055 35.0391 22.8 35.0391 22.4925V20.9025C35.0391 20.595 35.2941 20.34 35.6016 20.34C35.9091 20.34 36.1641 20.595 36.1641 20.9025V22.4925C36.1641 22.8 35.9091 23.055 35.6016 23.055Z" fill="#5C5C5C"/>
</svg>
