<svg width="42" height="42" viewBox="0 0 42 42" fill="none" xmlns="http://www.w3.org/2000/svg">
<path d="M23.25 39.75H14.25C13.8375 39.75 13.5 39.4125 13.5 39C13.5 37.3425 12.1575 36 10.5 36C10.0875 36 9.75 35.6625 9.75 35.25V6.75C9.75 6.3375 10.0875 6 10.5 6C12.1575 6 13.5 4.6575 13.5 3C13.5 2.5875 13.8375 2.25 14.25 2.25H23.25C23.6625 2.25 24 2.5875 24 3C24 4.6575 25.3425 6 27 6C27.4125 6 27.75 6.3375 27.75 6.75V35.25C27.75 35.6625 27.4125 36 27 36C25.3425 36 24 37.3425 24 39C24 39.4125 23.6625 39.75 23.25 39.75ZM14.94 38.25H22.5675C22.8825 36.3675 24.375 34.8825 26.2575 34.56V7.44C24.375 7.125 22.89 5.6325 22.5675 3.75H14.94C14.625 5.6325 13.1325 7.1175 11.25 7.44V34.56C13.1325 34.875 14.6175 36.3675 14.94 38.25Z" fill="#69A470"/>
<path d="M18.75 28.5C16.68 28.5 15 26.82 15 24.75C15 22.68 16.68 21 18.75 21C20.82 21 22.5 22.68 22.5 24.75C22.5 26.82 20.82 28.5 18.75 28.5ZM18.75 22.5C17.5125 22.5 16.5 23.5125 16.5 24.75C16.5 25.9875 17.5125 27 18.75 27C19.9875 27 21 25.9875 21 24.75C21 23.5125 19.9875 22.5 18.75 22.5Z" fill="#69A470"/>
<path d="M18.75 18.75C15.855 18.75 13.5 16.395 13.5 13.5C13.5 10.605 15.855 8.25 18.75 8.25C21.645 8.25 24 10.605 24 13.5C24 16.395 21.645 18.75 18.75 18.75ZM18.75 9.75C16.68 9.75 15 11.43 15 13.5C15 15.57 16.68 17.25 18.75 17.25C20.82 17.25 22.5 15.57 22.5 13.5C22.5 11.43 20.82 9.75 18.75 9.75Z" fill="#69A470"/>
<path d="M18.75 33C17.5125 33 16.5 31.9875 16.5 30.75V27.75C16.5 27.3375 16.8375 27 17.25 27C17.6625 27 18 27.3375 18 27.75V30.75C18 31.1625 18.3375 31.5 18.75 31.5C19.1625 31.5 19.5 31.1625 19.5 30.75V27.75C19.5 27.3375 19.8375 27 20.25 27C20.6625 27 21 27.3375 21 27.75V30.75C21 31.9875 19.9875 33 18.75 33Z" fill="#69A470"/>
<path d="M10.5008 18H6.75076C6.40576 18 6.10576 17.7675 6.02326 17.43L5.27326 14.43C5.21326 14.205 5.27326 13.965 5.40826 13.785C5.55076 13.605 5.76826 13.5 6.00076 13.5H10.5008C10.9133 13.5 11.2508 13.8375 11.2508 14.25V17.25C11.2508 17.6625 10.9133 18 10.5008 18ZM7.33576 16.5H9.75076V15H6.96076L7.33576 16.5Z" fill="#69A470"/>
<path d="M10.5 24H4.5C4.0875 24 3.75 23.6625 3.75 23.25V20.25C3.75 19.8375 4.0875 19.5 4.5 19.5H10.5C10.9125 19.5 11.25 19.8375 11.25 20.25V23.25C11.25 23.6625 10.9125 24 10.5 24ZM5.25 22.5H9.75V21H5.25V22.5Z" fill="#69A470"/>
<path d="M10.5019 30H6.00194C5.76944 30 5.55194 29.895 5.40944 29.715C5.26694 29.535 5.21444 29.295 5.27444 29.07L6.02444 26.07C6.10694 25.7325 6.40694 25.5 6.75194 25.5H10.5019C10.9144 25.5 11.2519 25.8375 11.2519 26.25V29.25C11.2519 29.6625 10.9144 30 10.5019 30ZM6.96194 28.5H9.75194V27H7.33694L6.96194 28.5Z" fill="#69A470"/>
<path d="M18.75 26.25C18.3375 26.25 18 25.9125 18 25.5V24C18 23.5875 18.3375 23.25 18.75 23.25C19.1625 23.25 19.5 23.5875 19.5 24V25.5C19.5 25.9125 19.1625 26.25 18.75 26.25Z" fill="#69A470"/>
<path d="M18.75 11.25H37.5V15.75H18.75C17.505 15.75 16.5 14.745 16.5 13.5C16.5 12.255 17.505 11.25 18.75 11.25Z" fill="white"/>
<path d="M37.5 16.5H18.75C17.0925 16.5 15.75 15.1575 15.75 13.5C15.75 11.8425 17.0925 10.5 18.75 10.5H37.5C37.9125 10.5 38.25 10.8375 38.25 11.25V15.75C38.25 16.1625 37.9125 16.5 37.5 16.5ZM18.75 12C17.925 12 17.25 12.675 17.25 13.5C17.25 14.325 17.925 15 18.75 15H36.75V12H18.75Z" fill="#69A470"/>
<path d="M35.3178 38.235L31.9203 40.5C31.6653 40.665 31.3428 40.665 31.0878 40.5L27.6903 38.235C25.8603 37.0125 24.7578 34.9575 24.7578 32.7525V26.6925C24.7578 26.37 24.9678 26.085 25.2678 25.98L31.2678 23.9775C31.4253 23.925 31.5903 23.925 31.7403 23.9775L37.7403 25.98C38.0478 26.085 38.2503 26.37 38.2503 26.6925V32.7525C38.2503 34.9575 37.1478 37.0125 35.3178 38.235Z" fill="#5C5C5C"/>
<path d="M30.7519 34.5C30.5569 34.5 30.3694 34.425 30.2194 34.2825L28.3444 32.4075C28.0519 32.115 28.0519 31.6425 28.3444 31.35C28.6369 31.0575 29.1094 31.0575 29.4019 31.35L30.7444 32.6925L33.9619 29.475C34.2544 29.1825 34.7269 29.1825 35.0194 29.475C35.3119 29.7675 35.3119 30.24 35.0194 30.5325L31.2694 34.2825C31.1194 34.4325 30.9319 34.5 30.7369 34.5H30.7519Z" fill="white"/>
</svg>
