<?xml version="1.0" encoding="UTF-8"?>
<svg id="Layer_1" data-name="Layer 1" xmlns="http://www.w3.org/2000/svg" viewBox="0 0 56 56">
  <defs>
    <style>
      .cls-1 {
        fill: #69a470;
      }

      .cls-2 {
        fill: #5c5c5c;
      }
    </style>
  </defs>
  <g>
    <path class="cls-1" d="M25.26,25.29H15.51v-1.93l4.6-4.9c.63-.69,1.1-1.29,1.4-1.81s.45-1,.45-1.46c0-.63-.16-1.13-.48-1.49s-.77-.54-1.37-.54c-.64,0-1.14,.22-1.51,.66s-.55,1.02-.55,1.73h-2.83c0-.87,.21-1.66,.62-2.37s1-1.28,1.75-1.68,1.61-.61,2.57-.61c1.46,0,2.6,.35,3.41,1.05s1.22,1.7,1.22,2.98c0,.7-.18,1.42-.55,2.15s-.99,1.58-1.88,2.55l-3.23,3.41h6.11v2.28Z"/>
    <path class="cls-1" d="M34.34,19.94h1.61v2.28h-1.61v3.08h-2.82v-3.08h-5.83l-.13-1.78,5.93-9.37h2.85v8.87Zm-5.97,0h3.14v-5.02l-.19,.32-2.96,4.7Z"/>
  </g>
  <path class="cls-2" d="M45.79,36.68c-1.3,4.85-4.37,7.92-9.22,9.22-.44,.12-.91,.07-1.33-.12l-3.6-1.63c-.76-.34-1.65-.18-2.24,.41l-2.53,2.53c-.67,.67-.78,1.73-.25,2.53l2.2,3.28c.41,.61,1.13,.97,1.86,.88,12.03-1.45,21.54-10.96,22.99-22.99,.09-.73-.27-1.45-.88-1.86l-3.28-2.2c-.79-.53-1.85-.43-2.53,.25l-2.53,2.53c-.59,.59-.75,1.48-.41,2.24l1.63,3.6c.19,.41,.24,.89,.12,1.33Z"/>
  <path class="cls-1" d="M38,39c-.31,0-.61-.14-.8-.4l-5.7-7.6H12c-2.76,0-5-2.24-5-5V10c0-2.76,2.24-5,5-5h28c2.76,0,5,2.24,5,5V26c0,2.76-2.24,5-5,5h-1v7c0,.43-.28,.81-.68,.95-.1,.03-.21,.05-.32,.05ZM12,7c-1.65,0-3,1.35-3,3V26c0,1.65,1.35,3,3,3h20c.31,0,.61,.15,.8,.4l4.2,5.6v-5c0-.55,.45-1,1-1h2c1.65,0,3-1.35,3-3V10c0-1.65-1.35-3-3-3H12Z"/>
  <path class="cls-1" d="M10,40c-.14,0-.29-.03-.42-.09-.35-.16-.58-.52-.58-.91v-4h-1c-2.76,0-5-2.24-5-5V14c0-.89,.24-1.77,.69-2.54,.28-.48,.89-.63,1.37-.35,.48,.28,.63,.89,.35,1.37-.27,.46-.41,.98-.41,1.52V30c0,1.65,1.35,3,3,3h2c.55,0,1,.45,1,1v2.86l4.36-3.63c.18-.15,.41-.23,.64-.23h11c.55,0,1,.45,1,1s-.45,1-1,1h-10.64l-5.72,4.77c-.18,.15-.41,.23-.64,.23Z"/>
  <path class="cls-2" d="M23.59,44.92h-2.12c-.41,0-.75-.34-.75-.75s.34-.75,.75-.75h2.12c.41,0,.75,.34,.75,.75s-.34,.75-.75,.75Zm1.1-2.08c-.19,0-.38-.07-.53-.22l-1.5-1.5c-.29-.29-.29-.77,0-1.06s.77-.29,1.06,0l1.5,1.5c.29,.29,.29,.77,0,1.06-.15,.15-.34,.22-.53,.22Zm2.08-1.1c-.41,0-.75-.34-.75-.75v-2.12c0-.41,.34-.75,.75-.75s.75,.34,.75,.75v2.12c0,.41-.34,.75-.75,.75Z"/>
</svg>