<svg width="32" height="32" viewBox="0 0 32 32" fill="none" xmlns="http://www.w3.org/2000/svg">
<path d="M9.76709 26.28C9.76709 26.28 9.75566 26.28 9.74995 26.28L6.43566 26.1943C6.14424 26.1886 5.90995 25.9657 5.88138 25.6743L5.56138 22.12C5.54423 21.9486 5.60709 21.7829 5.72709 21.6629L15.7842 11.6115C16.1899 11.2057 16.2528 10.5657 15.9328 10.0915C15.3157 9.16575 15.4357 7.91432 16.2242 7.12575L19.5957 3.75432C20.5099 2.84003 22.0014 2.84003 22.9157 3.75432L28.0814 8.92003C28.5271 9.36575 28.7671 9.95432 28.7671 10.5829C28.7671 11.2115 28.5214 11.8 28.0814 12.2457L24.7099 15.6172C23.9214 16.4057 22.6757 16.5315 21.7442 15.9086C21.2699 15.5886 20.6299 15.6572 20.2242 16.0572L17.6357 18.6457L17.1557 20.6229C17.1042 20.8229 16.9499 20.9829 16.7499 21.04L14.6814 21.6L14.2757 22.0057L13.6814 24.1143C13.6299 24.3029 13.4814 24.4515 13.2871 24.5086L11.1614 25.12L10.1671 26.1086C10.0585 26.2172 9.91566 26.2743 9.76138 26.2743L9.76709 26.28ZM6.97281 25.0686L9.53281 25.1315L10.4528 24.2115C10.5214 24.1429 10.6071 24.0915 10.6985 24.0686L12.6642 23.5029L13.2128 21.56C13.2414 21.4686 13.2871 21.3829 13.3614 21.3086L13.9842 20.6857C14.0528 20.6172 14.1442 20.5657 14.2414 20.5372L16.1328 20.0286L16.5671 18.2229C16.5899 18.12 16.6414 18.0286 16.7157 17.9543L19.4185 15.2515C20.2071 14.4629 21.4528 14.3372 22.3842 14.96C22.8585 15.2743 23.4985 15.2172 23.9042 14.8115L27.2757 11.44C27.5042 11.2115 27.6299 10.9086 27.6299 10.5886C27.6299 10.2686 27.5042 9.96575 27.2757 9.73717L22.1099 4.57146C21.6414 4.10289 20.8757 4.10289 20.4071 4.57146L17.0357 7.94289C16.6299 8.3486 16.5671 8.9886 16.8871 9.46289C17.5042 10.3886 17.3842 11.64 16.5957 12.4286L6.72709 22.2857L6.97852 25.0629L6.97281 25.0686Z" fill="#69A470"/>
<path d="M8.32676 23.68C8.17819 23.68 8.03533 23.6229 7.92105 23.5143C7.69819 23.2914 7.69819 22.9314 7.92105 22.7086L14.3839 16.2457C14.8182 15.8114 15.3896 15.5771 16.001 15.5771C16.6125 15.5771 17.1839 15.8171 17.6182 16.2457L18.4239 17.0514C18.6468 17.2743 18.6468 17.6343 18.4239 17.8571C18.201 18.08 17.841 18.08 17.6182 17.8571L16.8125 17.0514C16.3668 16.6057 15.641 16.6057 15.1953 17.0514L8.73248 23.5143C8.61819 23.6286 8.47533 23.68 8.32676 23.68Z" fill="#69A470"/>
<path d="M24.4937 12.3658C24.3451 12.3658 24.2023 12.3086 24.088 12.2L19.6423 7.75433C19.5337 7.64576 19.4766 7.5029 19.4766 7.34862C19.4766 7.19433 19.5394 7.05147 19.6423 6.9429L20.8537 5.73147C21.0766 5.50862 21.4366 5.50862 21.6594 5.73147L26.1051 10.1772C26.2137 10.2858 26.2708 10.4286 26.2708 10.5829C26.2708 10.7372 26.208 10.88 26.1051 10.9886L24.8937 12.2C24.7794 12.3143 24.6366 12.3658 24.488 12.3658H24.4937ZM20.8594 7.34862L24.4937 10.9829L24.8994 10.5772L21.2651 6.9429L20.8594 7.34862Z" fill="#69A470"/>
<path d="M20.4512 13.9828C20.3026 13.9828 20.1598 13.9257 20.0455 13.8171L18.0226 11.7943C17.7998 11.5714 17.7998 11.2114 18.0226 10.9886C18.2455 10.7657 18.6055 10.7657 18.8283 10.9886L20.8512 13.0114C21.074 13.2343 21.074 13.5943 20.8512 13.8171C20.7369 13.9314 20.594 13.9828 20.4455 13.9828H20.4512Z" fill="#69A470"/>
<path d="M11.7043 16.8857C11.5558 16.8857 11.4129 16.8285 11.2986 16.72L8.31005 13.7314C6.40148 14.36 4.29291 13.8742 2.85862 12.4342C1.32719 10.9028 0.870051 8.62282 1.69291 6.6171C1.76719 6.43996 1.92148 6.31425 2.11005 6.27425C2.29862 6.23425 2.49291 6.2971 2.62434 6.42853L5.28719 9.09139L6.89862 8.91425L7.07577 7.30282L4.41291 4.63996C4.27576 4.50282 4.21862 4.30853 4.25862 4.12568C4.29862 3.94282 4.42434 3.78282 4.60148 3.70853C6.60719 2.88568 8.88719 3.34282 10.4186 4.87425C11.8586 6.31425 12.3501 8.4171 11.7158 10.3257L14.7043 13.3142C14.9272 13.5371 14.9272 13.8971 14.7043 14.12C14.4815 14.3428 14.1215 14.3428 13.8986 14.12L10.6529 10.8742C10.4872 10.7085 10.4415 10.4685 10.5272 10.2514C11.1729 8.67425 10.8129 6.87996 9.61291 5.67996C8.62434 4.69139 7.24148 4.27425 5.90434 4.51425L8.08148 6.69139C8.20148 6.81139 8.26434 6.98853 8.24719 7.15996L7.99005 9.4971C7.96148 9.75996 7.75005 9.97139 7.48719 9.99996L5.15005 10.2571C4.97862 10.2742 4.80719 10.2171 4.68148 10.0914L2.50434 7.91425C2.26434 9.25139 2.68719 10.6342 3.67005 11.6228C4.87577 12.8285 6.67005 13.1828 8.24148 12.5371C8.45291 12.4514 8.69862 12.4971 8.86434 12.6628L12.1101 15.9085C12.3329 16.1314 12.3329 16.4914 12.1101 16.7142C11.9958 16.8285 11.8529 16.88 11.7043 16.88V16.8857Z" fill="#69A470"/>
<path d="M16.3262 29.92L15.8462 28C15.7947 27.7943 15.6347 27.6343 15.429 27.5829L13.509 27.1029C13.0805 26.9943 12.9319 26.4572 13.2462 26.1429L16.1719 23.2172C16.3947 22.9943 16.7547 22.9943 16.9776 23.2172L20.2119 26.4515C20.4347 26.6743 20.4347 27.0343 20.2119 27.2572L17.2862 30.1829C16.9719 30.4972 16.4347 30.3486 16.3262 29.92Z" fill="#5C5C5C"/>
<path d="M27.1036 29.92L27.5836 28C27.6351 27.7943 27.7951 27.6343 28.0008 27.5829L29.9208 27.1029C30.3494 26.9943 30.4979 26.4572 30.1836 26.1429L27.2579 23.2172C27.0351 22.9943 26.6751 22.9943 26.4522 23.2172L23.2179 26.4515C22.9951 26.6743 22.9951 27.0343 23.2179 27.2572L26.1436 30.1829C26.4579 30.4972 26.9951 30.3486 27.1036 29.92Z" fill="#5C5C5C"/>
<path d="M21.7154 27.4286C25.1869 27.4286 28.0011 24.6144 28.0011 21.1429C28.0011 17.6714 25.1869 14.8572 21.7154 14.8572C18.2439 14.8572 15.4297 17.6714 15.4297 21.1429C15.4297 24.6144 18.2439 27.4286 21.7154 27.4286Z" fill="#5C5C5C"/>
<path d="M21.7148 26.1429C18.9548 26.1429 16.7148 23.8972 16.7148 21.1429C16.7148 18.3887 18.9548 16.1429 21.7148 16.1429C24.4748 16.1429 26.7148 18.3887 26.7148 21.1429C26.7148 23.8972 24.4748 26.1429 21.7148 26.1429ZM21.7148 17.0001C19.4291 17.0001 17.572 18.8572 17.572 21.1429C17.572 23.4287 19.4291 25.2858 21.7148 25.2858C24.0006 25.2858 25.8577 23.4287 25.8577 21.1429C25.8577 18.8572 24.0006 17.0001 21.7148 17.0001Z" fill="white"/>
<path d="M21.1421 23.4286C20.9935 23.4286 20.8506 23.3714 20.7363 23.2629L19.3078 21.8343C19.0849 21.6114 19.0849 21.2514 19.3078 21.0286C19.5306 20.8057 19.8906 20.8057 20.1135 21.0286L21.1363 22.0514L23.5878 19.6C23.8106 19.3771 24.1706 19.3771 24.3935 19.6C24.6163 19.8229 24.6163 20.1829 24.3935 20.4057L21.5363 23.2629C21.4221 23.3771 21.2792 23.4286 21.1306 23.4286H21.1421Z" fill="white"/>
<path d="M30.1603 18.24H28.9488C28.7146 18.24 28.5203 18.0457 28.5203 17.8114C28.5203 17.5771 28.7146 17.3828 28.9488 17.3828H30.1603C30.3946 17.3828 30.5888 17.5771 30.5888 17.8114C30.5888 18.0457 30.3946 18.24 30.1603 18.24ZM28.3203 17.0514C28.2117 17.0514 28.1031 17.0114 28.0174 16.9257C27.8517 16.76 27.8517 16.4857 28.0174 16.32L28.8746 15.4628C29.0403 15.2971 29.3146 15.2971 29.4803 15.4628C29.646 15.6285 29.646 15.9028 29.4803 16.0685L28.6231 16.9257C28.5374 17.0114 28.4288 17.0514 28.3203 17.0514ZM27.1317 16.4228C26.8974 16.4228 26.7031 16.2285 26.7031 15.9942V14.7828C26.7031 14.5485 26.8974 14.3542 27.1317 14.3542C27.366 14.3542 27.5603 14.5485 27.5603 14.7828V15.9942C27.5603 16.2285 27.366 16.4228 27.1317 16.4228Z" fill="#5C5C5C"/>
</svg>
