<svg width="42" height="42" viewBox="0 0 42 42" fill="none" xmlns="http://www.w3.org/2000/svg">
<path d="M27.75 39H6.75C6.3375 39 6 38.6625 6 38.25V3.75C6 3.3375 6.3375 3 6.75 3H27.75C28.1625 3 28.5 3.3375 28.5 3.75V38.25C28.5 38.6625 28.1625 39 27.75 39ZM7.5 37.5H27V4.5H7.5V37.5Z" fill="#69A470"/>
<path d="M24.75 17.25H9.75C9.3375 17.25 9 16.9125 9 16.5V6.75C9 6.3375 9.3375 6 9.75 6H24.75C25.1625 6 25.5 6.3375 25.5 6.75V16.5C25.5 16.9125 25.1625 17.25 24.75 17.25ZM10.5 15.75H24V7.5H10.5V15.75Z" fill="#69A470"/>
<path d="M24.75 36H9.75C9.3375 36 9 35.6625 9 35.25V25.5C9 25.0875 9.3375 24.75 9.75 24.75H24.75C25.1625 24.75 25.5 25.0875 25.5 25.5V35.25C25.5 35.6625 25.1625 36 24.75 36ZM10.5 34.5H24V26.25H10.5V34.5Z" fill="#69A470"/>
<path d="M11.625 23.0625C10.485 23.0625 9.5625 22.14 9.5625 21C9.5625 19.86 10.485 18.9375 11.625 18.9375C11.9325 18.9375 12.1875 19.1925 12.1875 19.5C12.1875 19.8075 11.9325 20.0625 11.625 20.0625C11.1075 20.0625 10.6875 20.4825 10.6875 21C10.6875 21.5175 11.1075 21.9375 11.625 21.9375C11.9325 21.9375 12.1875 22.1925 12.1875 22.5C12.1875 22.8075 11.9325 23.0625 11.625 23.0625Z" fill="#69A470"/>
<path d="M15 21.5625H12C11.6925 21.5625 11.4375 21.3075 11.4375 21C11.4375 20.6925 11.6925 20.4375 12 20.4375H15C15.3075 20.4375 15.5625 20.6925 15.5625 21C15.5625 21.3075 15.3075 21.5625 15 21.5625Z" fill="#69A470"/>
<path d="M17.25 17.25C16.8375 17.25 16.5 16.9125 16.5 16.5V6.75C16.5 6.3375 16.8375 6 17.25 6C17.6625 6 18 6.3375 18 6.75V16.5C18 16.9125 17.6625 17.25 17.25 17.25Z" fill="#69A470"/>
<path d="M24.75 12H9.75C9.3375 12 9 11.6625 9 11.25C9 10.8375 9.3375 10.5 9.75 10.5H24.75C25.1625 10.5 25.5 10.8375 25.5 11.25C25.5 11.6625 25.1625 12 24.75 12Z" fill="#69A470"/>
<path d="M38.9994 32.415V30.585C38.9994 30.24 38.7669 29.94 38.4294 29.8575L36.8319 29.46C36.5844 29.4 36.3894 29.2125 36.3069 28.965C36.2244 28.7175 36.1344 28.515 36.0294 28.29C35.9244 28.0575 35.9244 27.795 36.0519 27.57L36.8994 26.16C37.0794 25.8675 37.0269 25.485 36.7869 25.245L35.4969 23.955C35.2569 23.715 34.8744 23.6625 34.5819 23.8425L33.1719 24.69C32.9544 24.825 32.6844 24.825 32.4519 24.7125C32.2344 24.6075 32.0094 24.5175 31.7769 24.435C31.5369 24.3525 31.3494 24.1575 31.2819 23.91L30.8844 22.3125C30.8019 21.975 30.5019 21.7425 30.1569 21.7425H28.3269C27.9819 21.7425 27.6819 21.975 27.5994 22.3125L27.2019 23.91C27.1419 24.1575 26.9544 24.3525 26.7069 24.435C26.4594 24.5175 26.2569 24.6075 26.0319 24.7125C25.7994 24.8175 25.5369 24.8175 25.3119 24.69L23.9019 23.8425C23.6094 23.6625 23.2269 23.715 22.9869 23.955L21.6969 25.245C21.4569 25.485 21.4044 25.8675 21.5844 26.16L22.4319 27.57C22.5669 27.7875 22.5669 28.0575 22.4544 28.29C22.3494 28.5075 22.2594 28.7325 22.1769 28.965C22.0944 29.205 21.8994 29.3925 21.6519 29.46L20.0544 29.8575C19.7169 29.94 19.4844 30.24 19.4844 30.585V32.415C19.4844 32.76 19.7169 33.06 20.0544 33.1425L21.6519 33.54C21.8994 33.6 22.0944 33.7875 22.1769 34.035C22.2594 34.2825 22.3494 34.485 22.4544 34.71C22.5594 34.9425 22.5594 35.205 22.4319 35.43L21.5844 36.84C21.4044 37.1325 21.4569 37.515 21.6969 37.755L22.9869 39.045C23.2269 39.285 23.6094 39.3375 23.9019 39.1575L25.3119 38.31C25.5294 38.175 25.7994 38.175 26.0319 38.2875C26.2494 38.3925 26.4744 38.4825 26.7069 38.565C26.9469 38.6475 27.1344 38.8425 27.2019 39.09L27.5994 40.6875C27.6819 41.025 27.9819 41.2575 28.3269 41.2575H30.1569C30.5019 41.2575 30.8019 41.025 30.8844 40.6875L31.2819 39.09C31.3419 38.8425 31.5294 38.6475 31.7769 38.565C32.0244 38.4825 32.2269 38.3925 32.4519 38.2875C32.6844 38.1825 32.9469 38.1825 33.1719 38.31L34.5819 39.1575C34.8744 39.3375 35.2569 39.285 35.4969 39.045L36.7869 37.755C37.0269 37.515 37.0794 37.1325 36.8994 36.84L36.0519 35.43C35.9169 35.2125 35.9169 34.9425 36.0294 34.71C36.1344 34.4925 36.2244 34.2675 36.3069 34.035C36.3894 33.795 36.5844 33.6075 36.8319 33.54L38.4294 33.1425C38.7669 33.06 38.9994 32.76 38.9994 32.415Z" fill="#5C5C5C"/>
<path d="M29.25 39C33.3921 39 36.75 35.6421 36.75 31.5C36.75 27.3579 33.3921 24 29.25 24C25.1079 24 21.75 27.3579 21.75 31.5C21.75 35.6421 25.1079 39 29.25 39Z" fill="#5C5C5C"/>
<path d="M29.25 36.75C26.355 36.75 24 34.395 24 31.5C24 28.605 26.355 26.25 29.25 26.25C32.145 26.25 34.5 28.605 34.5 31.5C34.5 34.395 32.145 36.75 29.25 36.75ZM29.25 27.75C27.18 27.75 25.5 29.43 25.5 31.5C25.5 33.57 27.18 35.25 29.25 35.25C31.32 35.25 33 33.57 33 31.5C33 29.43 31.32 27.75 29.25 27.75Z" fill="white"/>
<path d="M40.3344 24.69H38.7444C38.4369 24.69 38.1819 24.435 38.1819 24.1275C38.1819 23.82 38.4369 23.565 38.7444 23.565H40.3344C40.6419 23.565 40.8969 23.82 40.8969 24.1275C40.8969 24.435 40.6419 24.69 40.3344 24.69ZM37.9194 23.13C37.7769 23.13 37.6344 23.0775 37.5219 22.965C37.3044 22.7475 37.3044 22.3875 37.5219 22.17L38.6469 21.045C38.8644 20.8275 39.2244 20.8275 39.4419 21.045C39.6594 21.2625 39.6594 21.6225 39.4419 21.84L38.3169 22.965C38.2044 23.0775 38.0619 23.13 37.9194 23.13ZM36.3594 22.305C36.0519 22.305 35.7969 22.05 35.7969 21.7425V20.1525C35.7969 19.845 36.0519 19.59 36.3594 19.59C36.6669 19.59 36.9219 19.845 36.9219 20.1525V21.7425C36.9219 22.05 36.6669 22.305 36.3594 22.305Z" fill="#5C5C5C"/>
</svg>
