<?xml version="1.0" encoding="UTF-8"?>
<svg id="Logo_Trace" data-name="Logo Trace" xmlns="http://www.w3.org/2000/svg" viewBox="0 0 136 48">
  <defs>
    <style>
      .cls-1 {
        fill: #061d3d;
      }
    </style>
  </defs>
  <g id="APECS">
    <path class="cls-1" d="M19.88,15.11h-3.63L4.34,36.74h4.4l1.94-3.63h14.77l1.94,3.63h4.4L19.88,15.11Zm-1.81,15.03h-5.7l5.7-10.51,5.7,10.51h-5.7Z"/>
    <path class="cls-1" d="M34.39,15.11v21.63h3.63v-7.77h12c3.1,0,5.61-2.51,5.61-5.61v-2.64c0-3.1-2.51-5.61-5.61-5.61h-15.63Zm14.76,10.62h-11.14v-7.25h11.14c1.57,0,2.85,1.28,2.85,2.85v1.55c0,1.57-1.28,2.85-2.85,2.85Z"/>
    <polygon class="cls-1" points="77.52 18.6 77.52 15.11 62.75 15.11 59.39 15.11 59.39 36.74 62.75 36.74 77.52 36.74 77.52 33.24 62.75 33.24 62.75 27.54 72.6 27.54 72.6 24.04 62.75 24.04 62.75 18.6 77.52 18.6"/>
    <path class="cls-1" d="M95.9,33.37h-8.91c-1.75,0-3.17-1.42-3.17-3.17v-8.56c0-1.75,1.42-3.17,3.17-3.17h8.91c1.75,0,3.17,1.42,3.17,3.17v.97h3.45v-1.25c0-3.46-2.8-6.26-6.26-6.26h-9.62c-3.46,0-6.26,2.8-6.26,6.26v9.11c0,3.46,2.8,6.26,6.26,6.26h9.62c3.46,0,6.26-2.8,6.26-6.26v-1.64h-3.45v1.36c0,1.75-1.42,3.17-3.17,3.17Z"/>
    <path class="cls-1" d="M127.65,21.06v-.11c0-3.23-2.62-5.84-5.84-5.84h-10.2c-3.23,0-5.84,2.62-5.84,5.84v.62c0,3.23,2.62,5.84,5.84,5.84h10.43c1.1,0,1.99,.89,1.99,1.99v1.72c0,1.1-.89,1.99-1.99,1.99h-10.66c-1.1,0-1.99-.89-1.99-1.99v-.34h-3.63v.11c0,3.23,2.62,5.84,5.84,5.84h10.2c3.23,0,5.84-2.62,5.84-5.84v-1.26c0-3.23-2.62-5.84-5.84-5.84h-10.43c-1.1,0-1.99-.89-1.99-1.99v-1.07c0-1.1,.89-1.99,1.99-1.99h10.66c1.1,0,1.99,.89,1.99,1.99v.34h3.63Z"/>
    <path class="cls-1" d="M131.66,13.75c0,1.41-1.11,2.52-2.55,2.52s-2.56-1.11-2.56-2.52,1.14-2.49,2.56-2.49,2.55,1.11,2.55,2.49Zm-4.47,0c0,1.11,.82,1.99,1.94,1.99s1.9-.88,1.9-1.97-.8-2-1.91-2-1.93,.89-1.93,1.99Zm1.53,1.3h-.58v-2.49c.23-.05,.55-.08,.96-.08,.47,0,.68,.08,.86,.18,.14,.11,.24,.3,.24,.55,0,.27-.21,.49-.52,.58v.03c.24,.09,.38,.27,.45,.61,.08,.38,.12,.53,.18,.62h-.62c-.08-.09-.12-.32-.2-.61-.05-.27-.2-.39-.52-.39h-.27v1Zm.02-1.41h.27c.32,0,.58-.11,.58-.36,0-.23-.17-.38-.53-.38-.15,0-.26,.02-.32,.03v.71Z"/>
  </g>
</svg>