<?xml version="1.0" encoding="UTF-8"?>
<svg id="Logo_Trace" data-name="Logo Trace" xmlns="http://www.w3.org/2000/svg" viewBox="0 0 98 48">
  <defs>
    <style>
      .cls-1 {
        fill: #f7ee21;
      }

      .cls-2 {
        fill: #eb1223;
      }

      .cls-3 {
        fill: #fff;
      }

      .cls-4 {
        fill: #ed1c24;
      }

      .cls-5 {
        fill: #1b5eaa;
      }
    </style>
  </defs>
  <g id="ASEC">
    <path class="cls-1" d="M18.24,21.33c0-8.74,11.29-16.14,26.87-18.67C23.66,3.84,6.97,12.92,6.97,23.93c0,11.82,19.2,21.4,42.89,21.4,18.53,0,34.32-5.86,40.29-14.08-6.71,5.78-19.11,9.67-33.3,9.67-21.32,0-38.61-8.77-38.61-19.6Z"/>
    <g>
      <path class="cls-5" d="M25.78,29.65h4.21l1.3-3.96h7.07l1.27,3.96h4.37l-6.81-19.25h-4.55l-6.87,19.25Zm11.54-7.27h-4.92l2.49-7.58,2.43,7.58Z"/>
      <path class="cls-5" d="M49.58,23.87c2.24,.53,3.54,.91,3.89,1.12,.52,.32,.68,.99,.36,1.51-.12,.19-.29,.34-.49,.43-.55,.24-1.15,.36-1.75,.33-1.25,0-2.11-.25-2.57-.74-.31-.41-.49-.9-.51-1.41h-3.77c-.03,1.38,.55,2.7,1.6,3.61,1.07,.94,2.73,1.41,4.98,1.41s3.82-.44,4.87-1.33c1.03-.85,1.61-2.12,1.58-3.45,.03-1.01-.37-1.98-1.1-2.68-.74-.7-1.85-1.23-3.34-1.58-2.21-.49-3.51-.83-3.88-1.03-.37-.17-.59-.55-.56-.95,.01-.36,.21-.7,.52-.89,.35-.25,.92-.38,1.74-.38,.98,0,1.68,.25,2.09,.76,.24,.33,.38,.73,.41,1.14h3.72c-.17-1.74-.81-2.97-1.93-3.67-1.12-.71-2.57-1.07-4.35-1.07-1.88,0-3.33,.47-4.37,1.42-.99,.85-1.56,2.09-1.55,3.39,0,1.11,.33,1.96,1,2.56s1.8,1.1,3.42,1.51Z"/>
      <path class="cls-5" d="M61.55,28.38c1.41,1.15,3.19,1.77,5.01,1.75,2.3,0,4.08-.69,5.35-2.07,.82-.87,1.28-1.73,1.38-2.57h-3.8c-.52,1.08-1.64,1.73-2.84,1.63-.72,.02-1.43-.17-2.05-.54-.93-.58-1.43-1.57-1.49-2.99h10.37c.03-.94,0-1.89-.12-2.83-.15-1.06-.54-2.06-1.14-2.94-.6-.92-1.46-1.65-2.46-2.1-1.06-.46-2.2-.68-3.35-.66-2.09,0-3.78,.66-5.09,1.97-1.31,1.31-1.96,3.21-1.96,5.67,0,2.62,.72,4.52,2.17,5.68Zm2.66-9.46c.59-.57,1.4-.86,2.22-.81,.81-.03,1.59,.25,2.21,.77,.63,.58,.99,1.4,1,2.25h-6.41c.09-.82,.44-1.59,.99-2.2h0Z"/>
      <path class="cls-5" d="M81.78,30.13c2.29,0,4.02-.81,5.19-2.44,.7-.93,1.13-2.05,1.23-3.21h-3.8c-.05,.66-.28,1.29-.66,1.83-.37,.47-.99,.7-1.86,.7-1.23,0-2.07-.59-2.52-1.78-.27-.81-.39-1.66-.37-2.51-.03-.89,.09-1.78,.37-2.63,.46-1.24,1.32-1.87,2.58-1.87,.89,0,1.54,.29,1.95,.86,.29,.43,.47,.92,.53,1.44h3.81c-.21-2.03-.88-3.44-2.02-4.24-1.14-.8-2.6-1.2-4.39-1.2-2.1,0-3.75,.68-4.94,2.03-1.19,1.36-1.79,3.26-1.79,5.7,0,2.16,.54,3.93,1.62,5.28,1.08,1.36,2.77,2.04,5.06,2.03Z"/>
    </g>
    <path class="cls-5" d="M89.31,12.83c-.95,0-1.72,.77-1.72,1.72,0,.95,.77,1.72,1.72,1.72,.95,0,1.72-.77,1.72-1.72h0c0-.95-.77-1.72-1.72-1.72Zm0,3.2c-.82,0-1.48-.66-1.48-1.48,0-.82,.66-1.48,1.48-1.48,.82,0,1.48,.66,1.48,1.48h0c0,.82-.66,1.48-1.48,1.48Zm.45-1.5c.06-.03,.12-.07,.16-.13,.04-.05,.08-.11,.1-.17,.02-.06,.04-.13,.04-.2,0-.07-.01-.14-.03-.2-.02-.07-.06-.13-.11-.19-.06-.06-.13-.11-.21-.14-.11-.04-.22-.06-.33-.06h-.74v2.1h.29v-.93h.32l.53,.93h.36l-.6-.96c.08,0,.15-.03,.22-.07Zm-.45-.15h-.37v-.66h.37c.06,0,.11,0,.17,0,.05,0,.1,.03,.15,.05,.04,.02,.08,.06,.1,.1,.03,.05,.04,.11,.04,.17,0,.06-.01,.12-.04,.18-.02,.04-.06,.08-.1,.1-.05,.03-.09,.04-.15,.05-.05,0-.11,.01-.17,.01Z"/>
    <g>
      <g>
        <path class="cls-2" d="M41.82,35.77l1.1-.17c.05,.21,.14,.37,.28,.48s.34,.17,.6,.17c.28,0,.5-.05,.64-.16,.1-.07,.14-.17,.14-.29,0-.08-.03-.15-.08-.21-.05-.05-.18-.1-.37-.14-.88-.19-1.44-.37-1.68-.53-.33-.22-.49-.53-.49-.93,0-.36,.14-.66,.42-.9,.28-.24,.72-.37,1.31-.37s.99,.09,1.26,.28c.27,.18,.46,.46,.57,.82l-1.03,.19c-.04-.16-.13-.28-.25-.37s-.3-.13-.53-.13c-.29,0-.49,.04-.62,.12-.08,.06-.12,.13-.12,.22,0,.08,.04,.14,.11,.2,.1,.07,.44,.17,1.02,.31,.58,.13,.99,.29,1.22,.49,.23,.19,.34,.47,.34,.81,0,.38-.16,.7-.47,.98s-.78,.41-1.4,.41c-.56,0-1.01-.11-1.34-.34-.33-.23-.54-.54-.64-.93Z"/>
        <path class="cls-2" d="M49.03,35.64l1.09,.18c-.14,.4-.36,.7-.66,.91-.3,.21-.68,.31-1.13,.31-.72,0-1.25-.24-1.6-.7-.27-.38-.41-.85-.41-1.42,0-.69,.18-1.22,.54-1.61,.36-.39,.81-.58,1.36-.58,.61,0,1.1,.2,1.46,.61,.36,.41,.53,1.03,.51,1.87h-2.74c0,.32,.1,.58,.26,.76,.17,.18,.38,.27,.63,.27,.17,0,.32-.05,.43-.14,.12-.09,.2-.24,.26-.45Zm.06-1.11c0-.32-.09-.56-.25-.72-.16-.16-.34-.25-.57-.25-.24,0-.44,.09-.59,.26-.16,.17-.23,.41-.23,.71h1.63Z"/>
        <path class="cls-2" d="M54.67,34.04l-1.08,.19c-.04-.21-.12-.38-.25-.49-.13-.11-.29-.16-.5-.16-.27,0-.49,.09-.65,.28s-.24,.5-.24,.94c0,.49,.08,.84,.25,1.04,.16,.2,.39,.3,.66,.3,.21,0,.38-.06,.51-.18,.13-.12,.23-.32,.28-.61l1.07,.18c-.11,.49-.33,.87-.64,1.12-.32,.25-.74,.38-1.27,.38-.6,0-1.09-.19-1.45-.57s-.54-.91-.54-1.58,.18-1.21,.54-1.59,.85-.57,1.46-.57c.5,0,.9,.11,1.2,.32,.3,.22,.51,.55,.64,.99Z"/>
        <path class="cls-2" d="M58.21,36.95v-.62c-.15,.22-.35,.39-.59,.52s-.5,.19-.78,.19-.53-.06-.75-.18c-.22-.12-.38-.29-.48-.51-.1-.22-.15-.53-.15-.92v-2.61h1.09v1.9c0,.58,.02,.94,.06,1.07s.11,.23,.22,.31c.11,.08,.24,.11,.4,.11,.19,0,.35-.05,.5-.15s.25-.23,.3-.38c.05-.15,.08-.52,.08-1.11v-1.74h1.09v4.13h-1.02Z"/>
        <path class="cls-2" d="M61.41,36.95h-1.09v-4.13h1.02v.59c.17-.28,.33-.46,.47-.55,.14-.09,.3-.13,.47-.13,.25,0,.49,.07,.72,.21l-.34,.95c-.18-.12-.36-.18-.51-.18s-.28,.04-.39,.13-.19,.24-.25,.46c-.06,.22-.09,.68-.09,1.38v1.28Z"/>
        <path class="cls-2" d="M63.46,32.26v-1.01h1.09v1.01h-1.09Zm0,4.69v-4.13h1.09v4.13h-1.09Z"/>
        <path class="cls-2" d="M67.57,32.82v.87h-.75v1.67c0,.34,0,.53,.02,.59,.01,.06,.05,.1,.1,.14,.05,.04,.11,.05,.18,.05,.1,0,.25-.03,.44-.1l.09,.85c-.25,.11-.54,.16-.86,.16-.2,0-.38-.03-.53-.1s-.27-.15-.35-.26c-.07-.1-.13-.25-.15-.43-.02-.13-.04-.38-.04-.77v-1.8h-.5v-.87h.5v-.82l1.1-.64v1.46h.75Z"/>
        <path class="cls-2" d="M67.81,32.82h1.16l.99,2.93,.96-2.93h1.13l-1.46,3.98-.26,.72c-.1,.24-.19,.42-.27,.55s-.19,.23-.3,.31c-.11,.08-.25,.14-.42,.18-.16,.04-.35,.07-.56,.07s-.42-.02-.62-.07l-.1-.86c.17,.03,.33,.05,.46,.05,.25,0,.44-.08,.56-.22,.12-.15,.22-.34,.28-.57l-1.57-4.14Z"/>
      </g>
      <g>
        <path class="cls-3" d="M43.8,37.21c-.6,0-1.08-.12-1.43-.37-.36-.25-.6-.59-.71-1.02l-.05-.18,1.43-.22,.03,.15c.04,.17,.11,.3,.22,.39,.11,.09,.28,.13,.5,.13,.25,0,.43-.04,.54-.12,.05-.04,.08-.09,.08-.16,0-.05-.02-.08-.03-.09h0s-.05-.04-.28-.1c-.91-.2-1.48-.38-1.73-.56-.37-.26-.56-.62-.56-1.07,0-.41,.16-.75,.48-1.03,.31-.27,.79-.41,1.42-.41s1.05,.1,1.35,.3,.52,.51,.63,.91l.05,.18-1.36,.25-.04-.15c-.03-.12-.09-.21-.19-.28-.09-.07-.24-.1-.43-.1-.32,0-.46,.05-.53,.09-.04,.03-.05,.06-.05,.08,0,.01,0,.03,.04,.07,.04,.03,.2,.11,.96,.28,.61,.14,1.04,.31,1.29,.52,.27,.23,.4,.54,.4,.94,0,.43-.18,.8-.53,1.1-.35,.3-.86,.45-1.51,.45Zm-1.76-1.3c.1,.27,.28,.49,.52,.66,.3,.21,.71,.31,1.24,.31,.58,0,1.01-.12,1.3-.37,.28-.24,.42-.52,.42-.85,0-.3-.09-.52-.28-.69-.21-.17-.59-.33-1.15-.45-.8-.18-1-.27-1.08-.34-.15-.11-.18-.24-.18-.33,0-.15,.07-.27,.2-.36,.16-.1,.39-.15,.71-.15,.26,0,.47,.05,.62,.16,.12,.08,.2,.19,.26,.32l.7-.13c-.1-.24-.24-.42-.44-.55-.25-.17-.64-.25-1.17-.25s-.96,.11-1.21,.33c-.25,.21-.37,.47-.37,.78,0,.34,.14,.6,.42,.79,.15,.1,.55,.27,1.62,.51,.22,.05,.37,.11,.44,.19,.09,.09,.13,.2,.13,.33,0,.17-.07,.32-.21,.42-.18,.13-.42,.19-.74,.19-.29,0-.53-.07-.7-.2-.14-.11-.24-.25-.3-.43l-.76,.12Z"/>
        <path class="cls-3" d="M48.32,37.21c-.77,0-1.35-.26-1.73-.77-.29-.4-.44-.92-.44-1.52,0-.73,.2-1.3,.58-1.72,.39-.42,.89-.63,1.48-.63,.66,0,1.19,.22,1.58,.67,.38,.44,.57,1.1,.55,1.98v.16h-2.73c.03,.2,.1,.36,.21,.48,.14,.15,.3,.22,.51,.22,.13,0,.24-.03,.33-.1,.09-.07,.16-.19,.21-.37l.04-.14,1.43,.24-.07,.19c-.15,.43-.39,.76-.72,.99-.33,.23-.74,.34-1.23,.34Zm-.11-4.32c-.5,0-.91,.17-1.24,.53s-.49,.86-.49,1.5c0,.54,.13,.98,.38,1.33,.31,.43,.79,.64,1.46,.64,.42,0,.77-.1,1.04-.28,.22-.16,.4-.37,.53-.65l-.75-.13c-.07,.17-.16,.3-.27,.39-.15,.12-.33,.18-.54,.18-.3,0-.55-.11-.75-.32-.2-.21-.3-.5-.31-.87v-.17s2.74,0,2.74,0c0-.71-.17-1.24-.47-1.59-.33-.37-.76-.55-1.33-.55Zm1.05,1.8h-1.97v-.16c0-.34,.09-.62,.27-.82,.19-.21,.43-.32,.72-.32,.27,0,.5,.1,.69,.3,.18,.19,.28,.47,.29,.83v.17Zm-1.62-.33h1.28c-.03-.19-.09-.34-.19-.44-.26-.27-.67-.26-.92,.01-.1,.11-.16,.25-.18,.43Z"/>
        <path class="cls-3" d="M52.81,37.21c-.65,0-1.17-.21-1.57-.62-.39-.41-.58-.98-.58-1.7s.2-1.3,.59-1.71c.39-.41,.92-.62,1.58-.62,.54,0,.97,.12,1.3,.36,.33,.24,.56,.6,.7,1.08l.05,.18-1.42,.26-.03-.17c-.03-.17-.09-.3-.19-.39-.1-.08-.23-.12-.39-.12-.22,0-.4,.07-.53,.22-.13,.16-.2,.44-.2,.83,0,.45,.07,.76,.21,.93,.13,.16,.31,.24,.53,.24,.17,0,.3-.04,.4-.13,.1-.09,.18-.27,.23-.52l.03-.16,1.41,.24-.04,.17c-.12,.53-.36,.94-.7,1.21-.34,.27-.81,.41-1.38,.41Zm.02-4.32c-.57,0-1.01,.17-1.34,.52-.33,.35-.49,.84-.49,1.48s.17,1.12,.49,1.47c.33,.35,.76,.52,1.32,.52,.49,0,.88-.12,1.17-.34,.25-.2,.43-.48,.54-.85l-.74-.12c-.06,.24-.16,.42-.3,.54-.16,.15-.37,.22-.62,.22-.33,0-.6-.12-.79-.36-.19-.24-.28-.61-.28-1.14,0-.49,.09-.83,.28-1.05,.19-.23,.46-.34,.78-.34,.24,0,.45,.07,.61,.2,.12,.11,.21,.25,.26,.42l.73-.13c-.12-.32-.29-.56-.52-.73-.27-.19-.64-.29-1.1-.29Z"/>
        <path class="cls-3" d="M56.85,37.21c-.3,0-.58-.07-.83-.2-.25-.14-.44-.34-.55-.59-.11-.24-.16-.57-.16-.98v-2.78h1.42v2.06c0,.74,.03,.96,.05,1.02,.03,.1,.08,.17,.16,.23,.17,.12,.49,.11,.71-.04,.12-.08,.2-.18,.24-.3,.03-.09,.07-.35,.07-1.06v-1.91h1.43v4.46h-1.35v-.35c-.11,.09-.22,.17-.35,.24-.27,.14-.56,.21-.85,.21Zm-1.21-4.23v2.45c0,.36,.04,.65,.13,.85,.08,.19,.22,.33,.41,.43,.39,.21,.92,.22,1.37,0,.22-.11,.4-.27,.53-.47l.3-.44v.99h.68v-3.8h-.76v1.58c0,.82-.05,1.06-.09,1.17-.07,.18-.19,.34-.37,.46-.33,.23-.81,.24-1.1,.04-.14-.1-.23-.23-.28-.4-.03-.1-.07-.31-.07-1.12v-1.73h-.76Z"/>
        <path class="cls-3" d="M61.58,37.12h-1.42v-4.46h1.35v.25c.07-.08,.14-.14,.21-.18,.39-.25,.92-.2,1.37,.07l.12,.07-.46,1.28-.18-.11c-.3-.2-.55-.19-.71-.06-.05,.04-.13,.14-.19,.37-.06,.21-.09,.66-.09,1.34v1.44Zm-1.09-.33h.76v-1.11c0-.73,.03-1.19,.1-1.43,.07-.26,.17-.43,.31-.54,.23-.18,.56-.22,.91-.06l.23-.63c-.31-.15-.65-.17-.9-.01-.08,.05-.22,.18-.42,.5l-.31,.49v-1h-.68v3.8Z"/>
        <path class="cls-3" d="M64.72,37.12h-1.42v-4.46h1.42v4.46Zm-1.09-.33h.76v-3.8h-.76v3.8Zm1.09-4.36h-1.42v-1.34h1.42v1.34Zm-1.09-.33h.76v-.68h-.76v.68Z"/>
        <path class="cls-3" d="M66.8,37.21c-.22,0-.42-.04-.6-.11-.19-.08-.33-.19-.42-.32-.09-.12-.15-.29-.18-.49-.02-.13-.04-.4-.04-.8v-1.63h-.5v-1.2h.5v-.75l1.43-.83v1.58h.75v1.2h-.75v1.5c0,.44,.01,.53,.02,.55,0,.01,0,.03,.03,.05,.05,.03,.11,.06,.47-.07l.2-.07,.13,1.18-.11,.05c-.27,.12-.59,.18-.93,.18Zm-1.41-3.69h.5v1.97c0,.47,.02,.66,.03,.74,.03,.16,.07,.28,.13,.36,.05,.08,.15,.15,.28,.2,.33,.14,.81,.1,1.15-.02l-.06-.52c-.27,.08-.44,.06-.58-.04-.08-.06-.14-.14-.16-.23-.01-.05-.03-.16-.03-.63v-1.83h.75v-.54h-.75v-1.34l-.77,.45v.89h-.5v.54Z"/>
        <path class="cls-3" d="M68.79,38.8c-.22,0-.44-.02-.65-.07l-.12-.03-.14-1.2,.22,.04c.43,.09,.72,.06,.87-.12,.1-.12,.18-.27,.23-.46l-1.64-4.32h1.52l.87,2.57,.85-2.57h1.49l-1.8,4.92c-.1,.25-.2,.45-.29,.59-.1,.14-.21,.26-.34,.35-.13,.09-.29,.16-.47,.21-.18,.05-.38,.07-.6,.07Zm-.47-.37c.34,.06,.71,.05,.98-.02,.15-.04,.27-.09,.37-.16,.09-.07,.18-.16,.26-.27,.08-.12,.17-.29,.26-.52l1.64-4.47h-.77l-1.08,3.29-1.11-3.29h-.8l1.51,3.97v.05c-.08,.25-.19,.46-.33,.63-.2,.24-.52,.32-.97,.27l.06,.52Z"/>
      </g>
      <g>
        <path class="cls-4" d="M41.82,35.77l1.1-.17c.05,.21,.14,.37,.28,.48s.34,.17,.6,.17c.28,0,.5-.05,.64-.16,.1-.07,.14-.17,.14-.29,0-.08-.03-.15-.08-.21-.05-.05-.18-.1-.37-.14-.88-.19-1.44-.37-1.68-.53-.33-.22-.49-.53-.49-.93,0-.36,.14-.66,.42-.9,.28-.24,.72-.37,1.31-.37s.99,.09,1.26,.28c.27,.18,.46,.46,.57,.82l-1.03,.19c-.04-.16-.13-.28-.25-.37s-.3-.13-.53-.13c-.29,0-.49,.04-.62,.12-.08,.06-.12,.13-.12,.22,0,.08,.04,.14,.11,.2,.1,.07,.44,.17,1.02,.31,.58,.13,.99,.29,1.22,.49,.23,.19,.34,.47,.34,.81,0,.38-.16,.7-.47,.98s-.78,.41-1.4,.41c-.56,0-1.01-.11-1.34-.34-.33-.23-.54-.54-.64-.93Z"/>
        <path class="cls-4" d="M49.03,35.64l1.09,.18c-.14,.4-.36,.7-.66,.91-.3,.21-.68,.31-1.13,.31-.72,0-1.25-.24-1.6-.7-.27-.38-.41-.85-.41-1.42,0-.69,.18-1.22,.54-1.61,.36-.39,.81-.58,1.36-.58,.61,0,1.1,.2,1.46,.61,.36,.41,.53,1.03,.51,1.87h-2.74c0,.32,.1,.58,.26,.76,.17,.18,.38,.27,.63,.27,.17,0,.32-.05,.43-.14,.12-.09,.2-.24,.26-.45Zm.06-1.11c0-.32-.09-.56-.25-.72-.16-.16-.34-.25-.57-.25-.24,0-.44,.09-.59,.26-.16,.17-.23,.41-.23,.71h1.63Z"/>
        <path class="cls-4" d="M54.67,34.04l-1.08,.19c-.04-.21-.12-.38-.25-.49-.13-.11-.29-.16-.5-.16-.27,0-.49,.09-.65,.28s-.24,.5-.24,.94c0,.49,.08,.84,.25,1.04,.16,.2,.39,.3,.66,.3,.21,0,.38-.06,.51-.18,.13-.12,.23-.32,.28-.61l1.07,.18c-.11,.49-.33,.87-.64,1.12-.32,.25-.74,.38-1.27,.38-.6,0-1.09-.19-1.45-.57s-.54-.91-.54-1.58,.18-1.21,.54-1.59,.85-.57,1.46-.57c.5,0,.9,.11,1.2,.32,.3,.22,.51,.55,.64,.99Z"/>
        <path class="cls-4" d="M58.21,36.95v-.62c-.15,.22-.35,.39-.59,.52s-.5,.19-.78,.19-.53-.06-.75-.18c-.22-.12-.38-.29-.48-.51-.1-.22-.15-.53-.15-.92v-2.61h1.09v1.9c0,.58,.02,.94,.06,1.07s.11,.23,.22,.31c.11,.08,.24,.11,.4,.11,.19,0,.35-.05,.5-.15s.25-.23,.3-.38c.05-.15,.08-.52,.08-1.11v-1.74h1.09v4.13h-1.02Z"/>
        <path class="cls-4" d="M61.41,36.95h-1.09v-4.13h1.02v.59c.17-.28,.33-.46,.47-.55,.14-.09,.3-.13,.47-.13,.25,0,.49,.07,.72,.21l-.34,.95c-.18-.12-.36-.18-.51-.18s-.28,.04-.39,.13-.19,.24-.25,.46c-.06,.22-.09,.68-.09,1.38v1.28Z"/>
        <path class="cls-4" d="M63.46,32.26v-1.01h1.09v1.01h-1.09Zm0,4.69v-4.13h1.09v4.13h-1.09Z"/>
        <path class="cls-4" d="M67.57,32.82v.87h-.75v1.67c0,.34,0,.53,.02,.59,.01,.06,.05,.1,.1,.14,.05,.04,.11,.05,.18,.05,.1,0,.25-.03,.44-.1l.09,.85c-.25,.11-.54,.16-.86,.16-.2,0-.38-.03-.53-.1s-.27-.15-.35-.26c-.07-.1-.13-.25-.15-.43-.02-.13-.04-.38-.04-.77v-1.8h-.5v-.87h.5v-.82l1.1-.64v1.46h.75Z"/>
        <path class="cls-4" d="M67.81,32.82h1.16l.99,2.93,.96-2.93h1.13l-1.46,3.98-.26,.72c-.1,.24-.19,.42-.27,.55s-.19,.23-.3,.31c-.11,.08-.25,.14-.42,.18-.16,.04-.35,.07-.56,.07s-.42-.02-.62-.07l-.1-.86c.17,.03,.33,.05,.46,.05,.25,0,.44-.08,.56-.22,.12-.15,.22-.34,.28-.57l-1.57-4.14Z"/>
      </g>
    </g>
  </g>
</svg>