<?xml version="1.0" encoding="UTF-8"?>
<svg id="Logo_Trace" data-name="Logo Trace" xmlns="http://www.w3.org/2000/svg" viewBox="0 0 120 48">
  <defs>
    <style>
      .cls-1 {
        fill: #e31818;
      }
    </style>
  </defs>
  <g id="CISA">
    <path d="M64.89,28.03c-1.8,0-3.27-2.19-3.27-4.9s1.46-4.9,3.27-4.9c1.31,0,2.44,1.15,2.96,2.82h5.57c-.91-4-4.38-6.98-8.53-6.98-4.84,0-8.76,4.06-8.76,9.06s3.92,9.06,8.76,9.06c4.15,0,7.62-2.98,8.53-6.98h-5.57c-.52,1.67-1.65,2.82-2.96,2.82Z"/>
    <rect x="74.69" y="14.81" width="5.64" height="16.93"/>
    <path d="M96.38,19.42h-4.9c-.3-.74-1.49-1.49-2.38-1.49-1.19,0-1.93,.74-1.93,1.34s.3,1.19,3.42,1.78c3.12,.59,6.39,2.08,6.39,5.05,0,3.86-3.12,6.09-7.72,6.09s-6.98-2.67-7.72-5.94h5.35c.59,1.63,1.93,2.08,2.67,2.08s2.38-.15,2.38-1.34-1.78-1.78-4.31-2.23c-2.53-.45-5.64-1.93-5.64-5.35s3.42-5.35,7.72-5.35,6.24,2.97,6.68,5.35Z"/>
    <path d="M108.41,14.67h-5.35l-6.09,17.08h5.35l.45-2.42h5.94l.45,2.42h5.35l-6.09-17.08Zm-2.67,11.44h-2.08l2.08-6.04,2.08,6.04h-2.08Z"/>
    <path class="cls-1" d="M34.82,15.47L12.01,27.12s-.09,.02-.13,0l-6.73-3.41c-.11-.06-.11-.21,0-.27L28.28,12.02s.09-.02,.13,0l6.4,3.18c.11,.05,.11,.21,0,.27Zm1.68,.64L13.68,27.77c-.11,.06-.11,.21,0,.26l6.24,3.16s.09,.02,.13,0l22.89-11.69c.11-.06,.11-.21,0-.27l-6.29-3.13s-.09-.02-.13,0Zm8.11,4.03l-22.9,11.7c-.11,.06-.11,.21,0,.26l6.57,3.33s.09,.02,.14,0l22.7-11.86c.11-.06,.11-.21,0-.26l-6.36-3.16s-.09-.02-.13,0Z"/>
    <path d="M113.23,16.12c0,.83-.65,1.47-1.49,1.47s-1.5-.65-1.5-1.47,.67-1.46,1.5-1.46,1.49,.65,1.49,1.46Zm-2.62,0c0,.65,.48,1.16,1.14,1.16s1.11-.52,1.11-1.15-.47-1.17-1.12-1.17-1.13,.52-1.13,1.16Zm.9,.76h-.34v-1.46c.13-.03,.32-.04,.56-.04,.28,0,.4,.04,.51,.11,.08,.06,.14,.18,.14,.32,0,.16-.12,.28-.3,.34v.02c.14,.05,.22,.16,.27,.36,.04,.22,.07,.31,.11,.36h-.36c-.04-.05-.07-.19-.12-.36-.03-.16-.12-.23-.3-.23h-.16v.59Zm0-.83h.16c.19,0,.34-.06,.34-.21,0-.13-.1-.22-.31-.22-.09,0-.15,0-.19,.02v.42Z"/>
  </g>
</svg>