<?xml version="1.0" encoding="UTF-8"?>
<svg id="Logo_Trace" data-name="Logo Trace" xmlns="http://www.w3.org/2000/svg" viewBox="0 0 104 48">
  <defs>
    <style>
      .cls-1 {
        fill: #df0034;
      }
    </style>
  </defs>
  <g id="ERA">
    <polygon class="cls-1" points="33.1 18.85 33.1 8.46 9.43 8.46 9.43 13.94 12.67 13.94 12.67 34.43 9.43 34.43 9.43 39.58 33.1 39.58 33.1 28.66 26.46 28.66 26.46 32.7 20.69 32.7 20.69 26.93 28.48 26.93 28.48 20.58 20.69 20.58 20.69 15.1 26.75 15.1 26.75 18.85 33.1 18.85"/>
    <path class="cls-1" d="M66,34.43v5.15h-11.22l-6.04-9.24h-1.93v3.76h3.04v5.48h-14.57v-5.15h3.24V13.94h-3.24v-5.48h17.6c5.82,0,10.53,4.72,10.53,10.53h0c0,4.5-2.82,8.34-6.79,9.85l4.19,5.59h5.19Zm-12.11-15.11h0c0-2.33-1.89-4.22-4.22-4.22h-2.86s0,9.01,0,9.01l3.59-.63c2.02-.35,3.5-2.11,3.5-4.16Z"/>
    <path class="cls-1" d="M91.39,34.1l-12.25-25.69h-11.13v5.77h4.02l-9.5,19.91h-3.17v5.48h14.57v-5.19h-2.63l1.62-3.46h8.08l1.62,3.46h-2.63v5.19h14.57v-5.48h-3.17Zm-14.43-8.08h-3.17l2.31-5.92h1.73l2.31,5.92h-3.17Z"/>
    <path class="cls-1" d="M89.75,12.08c0,1.61-1.26,2.87-2.9,2.87s-2.92-1.26-2.92-2.87,1.29-2.83,2.92-2.83,2.9,1.26,2.9,2.83Zm-5.09,0c0,1.26,.93,2.26,2.21,2.26s2.16-1,2.16-2.24-.91-2.28-2.17-2.28-2.19,1.02-2.19,2.26Zm1.74,1.48h-.66v-2.83c.26-.05,.62-.09,1.09-.09,.54,0,.78,.09,.98,.21,.16,.12,.28,.35,.28,.62,0,.31-.24,.55-.59,.66v.03c.28,.1,.43,.31,.52,.69,.09,.43,.14,.6,.21,.71h-.71c-.09-.1-.14-.36-.22-.69-.05-.31-.22-.45-.59-.45h-.31v1.14Zm.02-1.6h.31c.36,0,.66-.12,.66-.41,0-.26-.19-.43-.6-.43-.17,0-.29,.02-.36,.03v.81Z"/>
  </g>
</svg>