<?xml version="1.0" encoding="UTF-8"?>
<svg id="Logo_Trace" data-name="Logo Trace" xmlns="http://www.w3.org/2000/svg" viewBox="0 0 104 48">
  <defs>
    <style>
      .cls-1 {
        fill: #fffefe;
      }

      .cls-2 {
        fill: #da0000;
      }
    </style>
  </defs>
  <g id="IGNERSOLL">
    <rect class="cls-2" x="3.63" y="23.01" width="96.61" height="16.48" rx=".2" ry=".2"/>
    <g>
      <polygon class="cls-1" points="66.65 28.57 67.65 25.07 71.21 25.07 71.21 37.16 67.71 37.16 67.71 28.57 66.65 28.57"/>
      <polygon class="cls-1" points="80.54 25.07 73.41 25.07 72.41 28.57 74.56 28.57 74.56 37.16 78 37.16 78 28.57 79.75 28.57 80.54 25.07"/>
      <polygon class="cls-1" points="22.34 28.61 23.43 25.11 31.18 25.11 30.39 28.61 26.93 28.61 26.93 29.7 30.85 29.7 30.27 32.53 26.93 32.53 26.93 33.62 31.1 33.62 30.03 37.12 23.41 37.12 23.41 28.61 22.34 28.61"/>
      <path class="cls-1" d="M56.34,28.61h-1.05l1.1-3.5h4.71c1.83,0,4.42,1.5,4.42,4.25s-2.09,3.92-2.09,3.92l2.17,3.84h-4.09l-1.42-3.17h-.58v3.17h-3.17v-8.51Zm4.55-.08h-1.38v2.25h1.38c.62,0,1.13-.5,1.13-1.13h0c0-.62-.5-1.13-1.13-1.13Z"/>
      <path class="cls-1" d="M20.49,28.78l.75-2.84c-1.17-.83-3.25-1.08-4.42-1.08-2.07,0-4,1.32-4,3.75s2.59,3.17,3.59,3.5,1.5,.5,1.5,1-.33,.75-.92,.75-2.09-.33-3.09-1.17c-.42,1.42-.83,3.34-.83,3.34,1,1,2.75,1.33,4,1.33,3.09,0,4.59-1.75,4.59-3.67,0-2.5-1.5-3.42-2.59-3.92s-2.25-.75-2.25-1.33,.67-.67,1.17-.67,2.09,.5,2.5,1Z"/>
      <path class="cls-1" d="M40.66,32.09c-.4,.86-1.26,1.46-2.27,1.46-1.38,0-2.5-1.12-2.5-2.5s1.12-2.5,2.5-2.5c1.04,0,1.93,.63,2.31,1.53l1.67-3.75c-1.08-.91-2.46-1.46-3.98-1.46-3.41,0-6.17,2.76-6.17,6.17s2.76,6.17,6.17,6.17c1.65,0,3.15-.65,4.26-1.7l-1.98-3.43Z"/>
      <polygon class="cls-1" points="92 25.09 88.33 25.09 86.94 27.67 85.55 25.09 81.87 25.09 85.38 31.29 85.38 37.16 88.82 37.16 88.82 30.71 92 25.09"/>
      <path class="cls-1" d="M50.54,25.09v7.55c0,.88-.71,1.59-1.59,1.59h0c-.88,0-1.59-.71-1.59-1.59v-7.55h-3.23l-.97,3.38h1.16v4.42c0,2.55,2.07,4.62,4.62,4.62h0c2.55,0,4.62-2.07,4.62-4.62v-7.79h-3.03Z"/>
    </g>
    <g>
      <polygon points="3.26 12.88 4.45 8.71 8.69 8.71 8.69 23.11 4.52 23.11 4.52 12.88 3.26 12.88"/>
      <polygon points="10.02 8.71 14.45 8.71 17.93 14.07 17.93 8.71 22.1 8.71 22.1 23.11 18.36 23.11 14.15 16.26 14.15 23.11 10.28 23.11 10.28 12.98 9.09 12.98 10.02 8.71"/>
      <path d="M36.73,14.27h-6.29l-.89,3.48h2.51c-.57,.73-1.46,1.19-2.46,1.19-1.73,0-3.13-1.4-3.13-3.13s1.4-3.13,3.13-3.13c.86,0,1.65,.35,2.21,.92l2.95-2.95c-1.32-1.32-3.14-2.14-5.16-2.14-4.03,0-7.3,3.27-7.3,7.3s3.27,7.3,7.3,7.3,7.3-3.27,7.3-7.3c0-.53-.06-1.04-.16-1.54Z"/>
      <polygon points="36.4 12.98 37.69 8.81 46.92 8.81 45.98 12.98 41.86 12.98 41.86 14.27 46.52 14.27 45.83 17.65 41.85 17.65 41.85 18.94 46.82 18.94 45.55 23.11 37.66 23.11 37.66 12.98 36.4 12.98"/>
      <path d="M48.11,12.98h-1.25l1.31-4.17h5.6c2.18,0,5.26,1.79,5.26,5.06s-2.48,4.67-2.48,4.67l2.58,4.57h-4.87l-1.69-3.77h-.7v3.77h-3.77V12.98Zm5.41-.1h-1.64v2.68h1.64c.74,0,1.34-.6,1.34-1.34h0c0-.74-.6-1.34-1.34-1.34Z"/>
      <path d="M68.57,13.28l.89-3.38c-1.39-.99-3.87-1.29-5.26-1.29-3.08,0-4.77,1.49-4.77,4.47s3.08,3.77,4.27,4.17,1.79,.6,1.79,1.19-.4,.89-1.09,.89-2.48-.4-3.67-1.39c-.5,1.69-.99,3.97-.99,3.97,1.19,1.19,3.28,1.59,4.77,1.59,3.67,0,5.46-2.09,5.46-4.37,0-2.98-1.79-4.07-3.08-4.67s-2.68-.89-2.68-1.59,.79-.79,1.39-.79,2.48,.6,2.98,1.19Z"/>
      <path d="M84.65,15.96c0,4.06-3.29,7.35-7.35,7.35s-7.35-3.29-7.35-7.35,3.29-7.35,7.35-7.35,7.35,3.29,7.35,7.35Zm-7.35-2.98c-1.65,0-2.98,1.33-2.98,2.98s1.33,2.98,2.98,2.98,2.98-1.33,2.98-2.98-1.33-2.98-2.98-2.98Z"/>
      <polygon points="89.81 18.74 89.81 8.71 85.77 8.71 84.58 12.88 85.84 12.88 85.84 23.11 89.81 23.11 91.67 23.11 92.69 18.74 89.81 18.74"/>
      <polygon points="97.86 18.74 97.86 8.71 93.82 8.71 92.63 12.88 93.89 12.88 93.89 23.11 97.86 23.11 99.71 23.11 100.74 18.74 97.86 18.74"/>
    </g>
  </g>
</svg>