<?xml version="1.0" encoding="UTF-8"?>
<svg id="Logo_Trace" data-name="Logo Trace" xmlns="http://www.w3.org/2000/svg" viewBox="0 0 98 48">
  <defs>
    <style>
      .cls-1 {
        fill: red;
      }
    </style>
  </defs>
  <g id="ISEO">
    <rect class="cls-1" x="5.15" y="6.9" width="33.87" height="5.95"/>
    <rect x="5.15" y="15.33" width="7.93" height="25.44"/>
    <polygon points="62.64 21.27 62.64 15.33 51.24 15.33 43.48 15.33 43.48 40.77 51.24 40.77 62.64 40.77 62.64 34.66 51.24 34.66 51.24 30.69 60.49 30.69 60.49 24.74 51.24 24.74 51.24 21.27 62.64 21.27"/>
    <path class="cls-1" d="M31.91,23.09l6.44-1.98s-1.82-6.28-10.57-6.28c-6.61,0-10.24,3.96-10.24,8.26,0,2.81,1.16,5.95,6.77,7.43,5.62,1.49,6.77,1.82,6.77,2.97s-1.65,1.65-3.14,1.65-3.8-.83-4.63-3.3l-7.1,1.49c.66,3.3,3.63,7.76,11.23,7.76s11.56-3.96,11.56-8.43-2.97-6.94-7.43-7.93c-4.46-.99-6.44-1.32-6.44-2.64s1.98-1.49,2.97-1.49,2.97,.33,3.8,2.48Z"/>
    <path d="M89.4,27.96c0,7.25-4.3,13.13-12.14,13.13s-12.14-5.88-12.14-13.13,4.3-13.13,12.14-13.13,12.14,5.88,12.14,13.13Zm-12.14-7.35c-2.14,0-3.88,3.29-3.88,7.35s1.74,7.35,3.88,7.35,3.88-3.29,3.88-7.35-1.74-7.35-3.88-7.35Z"/>
    <path d="M92.85,16.51c0,.95-.75,1.7-1.72,1.7s-1.73-.75-1.73-1.7,.77-1.68,1.73-1.68,1.72,.75,1.72,1.68Zm-3.02,0c0,.75,.55,1.34,1.31,1.34s1.28-.59,1.28-1.33-.54-1.35-1.29-1.35-1.3,.6-1.3,1.34Zm1.03,.88h-.39v-1.68c.15-.03,.37-.05,.64-.05,.32,0,.46,.05,.58,.12,.09,.07,.16,.2,.16,.37,0,.18-.14,.33-.35,.39v.02c.16,.06,.26,.18,.31,.41,.05,.26,.08,.36,.12,.42h-.42c-.05-.06-.08-.21-.13-.41-.03-.18-.13-.27-.35-.27h-.18v.67Zm.01-.95h.18c.21,0,.39-.07,.39-.25,0-.15-.11-.26-.36-.26-.1,0-.17,.01-.21,.02v.48Z"/>
  </g>
</svg>