<?xml version="1.0" encoding="UTF-8"?>
<svg id="Logo_Trace" data-name="Logo Trace" xmlns="http://www.w3.org/2000/svg" viewBox="0 0 86 48">
  <defs>
    <style>
      .cls-1 {
        fill: #fff;
      }

      .cls-2 {
        fill: #dd1804;
      }
    </style>
  </defs>
  <g id="UNION">
    <path class="cls-2" d="M77.21,36.86c-23.01,9.05-45.82,8.97-68.42,0V11.18C31.67,2.1,54.48,2.13,77.21,11.18v25.68Z"/>
    <path class="cls-1" d="M15.38,14.91l3.34-.78v15.95c0,.51,.37,.94,.88,1.02l1.34,.2c.47,.07,.89-.29,.89-.76V13.43l3.49-.7v19.62c0,1.57-1.43,2.75-2.97,2.44l-4.57-.91c-1.3-.26-2.24-1.39-2.25-2.72l-.14-16.27Z"/>
    <polygon class="cls-1" points="27.8 12.27 27.8 35.7 31.21 36.16 31.21 23.59 35.16 36.55 38.27 36.78 38.27 11.22 34.78 11.42 34.78 24.29 30.98 11.88 27.8 12.27"/>
    <rect class="cls-1" x="41.22" y="11.11" width="3.57" height="25.76"/>
    <path class="cls-1" d="M50.81,11.25l4.74,.57c1.43,.17,2.51,1.38,2.51,2.83v18.7c0,1.43-1.07,2.64-2.49,2.82l-4.65,.59c-1.73,.22-3.25-1.13-3.25-2.87V14.05c0-1.69,1.47-3,3.15-2.8Zm1.35,21.96l1.92-.17c.36-.03,.64-.34,.64-.7V15.64c0-.35-.26-.65-.61-.7l-1.76-.22c-.59-.08-1.12,.39-1.12,.99v16.65c0,.5,.43,.9,.93,.85Z"/>
    <polygon class="cls-1" points="60.69 12.73 60.69 35.23 63.95 34.61 63.95 22.96 67.75 33.76 70.54 33.06 70.54 14.91 67.36 14.13 67.36 24.06 63.71 13.35 60.69 12.73"/>
    <path class="cls-1" d="M74.42,17.21c0,.8-.62,1.42-1.44,1.42s-1.45-.62-1.45-1.42,.64-1.4,1.45-1.4,1.44,.62,1.44,1.4Zm-2.52,0c0,.62,.46,1.12,1.09,1.12s1.07-.5,1.07-1.11-.45-1.13-1.08-1.13-1.09,.5-1.09,1.12Zm.86,.74h-.32v-1.4c.13-.03,.31-.04,.54-.04,.27,0,.39,.04,.49,.1,.08,.06,.14,.17,.14,.31,0,.15-.12,.27-.29,.33v.02c.14,.05,.21,.15,.26,.34,.04,.21,.07,.3,.1,.35h-.35c-.04-.05-.07-.18-.11-.34-.03-.15-.11-.22-.29-.22h-.15v.56Zm0-.8h.15c.18,0,.33-.06,.33-.21,0-.13-.09-.21-.3-.21-.09,0-.15,0-.18,.02v.4Z"/>
  </g>
</svg>