<?xml version="1.0" encoding="UTF-8"?>
<svg id="Logo_Trace" data-name="Logo Trace" xmlns="http://www.w3.org/2000/svg" viewBox="0 0 136 48">
  <defs>
    <style>
      .cls-1 {
        fill: #2e5160;
      }

      .cls-2 {
        fill: none;
        stroke: #2e5160;
        stroke-miterlimit: 10;
        stroke-width: .49px;
      }
    </style>
  </defs>
  <g id="ULTION">
    <path class="cls-1" d="M16.94,14.12v14.81c0,2.31-1.87,4.17-4.17,4.17h0c-2.31,0-4.17-1.87-4.17-4.17V14.12H4.5v14.81c0,4.56,3.7,8.27,8.27,8.27h0c4.56,0,8.27-3.7,8.27-8.27V14.12h-4.09Z"/>
    <polygon class="cls-1" points="29.05 31.96 29.05 15.92 25.29 15.92 25.29 35.4 37.24 35.4 37.24 31.96 29.05 31.96"/>
    <polygon class="cls-1" points="51.64 15.92 35.93 15.92 35.93 19.36 41.98 19.36 41.98 35.4 45.42 35.4 45.42 19.36 51.64 19.36 51.64 15.92"/>
    <rect class="cls-1" x="54.58" y="15.92" width="3.44" height="19.48"/>
    <path class="cls-1" d="M82.41,25.58c0,5.6-4.54,10.15-10.15,10.15s-10.15-4.54-10.15-10.15,4.54-10.15,10.15-10.15,10.15,4.54,10.15,10.15Zm-10.15-6.71c-3.71,0-6.71,3-6.71,6.71s3,6.71,6.71,6.71,6.71-3,6.71-6.71-3-6.71-6.71-6.71Z"/>
    <polygon class="cls-1" points="100.41 15.92 100.41 29.84 91.08 15.92 86.66 15.92 86.66 35.4 90.1 35.4 90.1 21.23 99.63 35.4 103.85 35.4 103.85 15.92 100.41 15.92"/>
    <path class="cls-2" d="M125.02,18.7l-2.27,2.37-2.17-2.37m-.37,15.71l2.54-13.34m4.83,.25h-7.37m5.56-2.62h-11.13l-1.8,2.62,7.37,13.09,7.37-13.09-1.8-2.62Zm-10.37,0l2.27,2.37,2.17-2.37m.37,15.71l-2.54-13.34m-4.83,.25h7.37"/>
    <polygon class="cls-1" points="112.03 10.8 112.69 12.81 114.81 12.81 113.09 14.06 113.75 16.07 112.03 14.83 110.32 16.07 110.98 14.06 109.26 12.81 111.38 12.81 112.03 10.8"/>
    <polygon class="cls-1" points="120.38 10.8 121.04 12.81 123.15 12.81 121.44 14.06 122.09 16.07 120.38 14.83 118.67 16.07 119.32 14.06 117.61 12.81 119.73 12.81 120.38 10.8"/>
    <polygon class="cls-1" points="128.73 10.8 129.38 12.81 131.5 12.81 129.79 14.06 130.44 16.07 128.73 14.83 127.02 16.07 127.67 14.06 125.96 12.81 128.08 12.81 128.73 10.8"/>
  </g>
</svg>