<?xml version="1.0" encoding="UTF-8"?>
<svg id="Logo_Trace" data-name="Logo Trace" xmlns="http://www.w3.org/2000/svg" viewBox="0 0 51 48">
  <defs>
    <style>
      .cls-1 {
        fill: #ffd203;
      }

      .cls-2 {
        fill: #231e22;
      }
    </style>
  </defs>
  <g id="YALE">
    <circle class="cls-1" cx="24.67" cy="23.87" r="22.83"/>
    <polygon class="cls-2" points="16.59 16.26 13.05 22.18 9.5 16.26 5.69 16.26 11.35 25.53 11.35 31.49 13.05 31.49 14.74 31.49 14.74 25.53 20.4 16.26 16.59 16.26"/>
    <rect class="cls-2" x="28.62" y="16.22" width="3.08" height="15.22"/>
    <path class="cls-2" d="M43.61,26.74c.03-.23,.04-.46,.04-.7,0-3.27-2.51-5.92-5.61-5.92s-5.61,2.65-5.61,5.92,2.51,5.92,5.61,5.92c2.41,0,4.46-1.6,5.26-3.85h-2.77c-.34,.91-1.06,1.51-2.48,1.51-1.34,0-2.46-1.24-2.71-2.87h8.28Zm-5.57-4.28c1.21,0,2.24,1.01,2.61,2.41h-5.23c.37-1.4,1.4-2.41,2.61-2.41Z"/>
    <path class="cls-2" d="M22.47,20.2c3.62,0,4.87,1.36,4.87,3.04v7.01c0,.43,.12,.86,.39,1.25h-3.04c-.23-.47-.16-1.09-.16-1.09,0,0-1.64,1.4-3.58,1.4-2.65,0-4.01-1.17-4.01-3.35,0-3.46,4.17-3.31,5.72-3.5s1.71-.93,1.71-1.44c0-.93-.74-1.36-2.06-1.36-1.83,0-1.91,1.28-1.91,1.71h-3.08c0-2.34,2.1-3.66,5.14-3.66Zm1.87,5.92c-.23,.35-1.36,.47-2.41,.58s-1.95,.55-1.95,1.67c0,.9,.62,1.44,1.95,1.44,1.67,0,2.41-1.39,2.41-2.31v-1.39Z"/>
    <path class="cls-2" d="M44.18,18.3c0,1.04-.82,1.86-1.88,1.86s-1.89-.82-1.89-1.86,.84-1.84,1.89-1.84,1.88,.82,1.88,1.84Zm-3.31,0c0,.82,.61,1.47,1.43,1.47s1.4-.65,1.4-1.46-.59-1.48-1.41-1.48-1.42,.66-1.42,1.47Zm1.13,.96h-.43v-1.84c.17-.03,.4-.06,.71-.06,.35,0,.5,.06,.64,.13,.1,.08,.18,.22,.18,.4,0,.2-.16,.36-.38,.43v.02c.18,.07,.28,.2,.34,.45,.06,.28,.09,.39,.13,.46h-.46c-.06-.07-.09-.24-.15-.45-.03-.2-.15-.29-.38-.29h-.2v.74Zm.01-1.04h.2c.24,0,.43-.08,.43-.27,0-.17-.12-.28-.39-.28-.11,0-.19,.01-.24,.02v.53Z"/>
  </g>
</svg>